<?xml version="1.0" encoding="UTF-8"?>
<svg width="36px" height="48px" viewBox="0 0 36 48" version="1.1" xmlns="http://www.w3.org/2000/svg" xmlns:xlink="http://www.w3.org/1999/xlink">
    <!-- Generator: Sketch 48.2 (47327) - http://www.bohemiancoding.com/sketch -->
    <title>Icons / Pin</title>
    <desc>Created with Sketch.</desc>
    <defs>
        <linearGradient x1="0%" y1="-13.8730138%" x2="74.1682485%" y2="94.8213385%" id="linearGradient-1">
            <stop stop-color="#00F260" offset="0%"></stop>
            <stop stop-color="#0575E6" offset="100%"></stop>
        </linearGradient>
    </defs>
    <g id="Symbols" stroke="none" stroke-width="1" fill="none" fill-rule="evenodd">
        <g id="Icons-/-Pin">
            <g id="Pin">
                <g id="Marker">
                    <path d="M2.58660225,27.1579362 C1.96112553,26.1289556 1.43679335,25.0322306 1.02732648,23.8814208 C0.740509253,23.1282041 0.543281561,22.4466739 0.4356434,21.8368303 C0.150469807,20.5708266 0,19.25414 0,17.9024662 C0,8.01520714 8.0511402,0 17.9827249,0 C27.9143097,0 35.9654499,8.01520714 35.9654499,17.9024662 C35.9654499,18.765905 35.9040499,19.615067 35.7853594,20.445861 C35.7158741,21.4471385 35.4300261,22.6019544 34.9278146,23.9103149 C34.5905546,24.8530131 34.176175,25.7592811 33.692234,26.6215971 C31.0953578,31.633203 26.10125,38.3460272 18.7099105,46.7600697 C18.3454226,47.1750091 17.713571,47.2158937 17.2986399,46.8513963 C17.2629481,46.8200427 17.2295359,46.7861856 17.1986571,46.7500821 C10.0628769,38.406914 5.19219192,31.8761987 2.58660225,27.1579362 Z" id="Combined-Shape" fill="url(#linearGradient-1)"></path>
                    <ellipse id="Oval-2" fill="#FBFBFB" cx="17.9684827" cy="17.8897074" rx="16.4167585" ry="16.3434889"></ellipse>
                </g>
            </g>
        </g>
    </g>
</svg>