<?xml version="1.0" encoding="UTF-8"?>
<svg width="675px" height="193px" viewBox="0 0 675 193" version="1.1" xmlns="http://www.w3.org/2000/svg" xmlns:xlink="http://www.w3.org/1999/xlink">
    <!-- Generator: Sketch 48.2 (47327) - http://www.bohemiancoding.com/sketch -->
    <title>Name</title>
    <desc>Created with Sketch.</desc>
    <defs></defs>
    <g id="Symbols" stroke="none" stroke-width="1" fill="none" fill-rule="evenodd">
        <g id="Name" fill="#03B2A5">
            <path d="M7,0 L98.7890913,-8.8817842e-16 C102.655085,-8.46573341e-15 105.789091,3.13400675 105.789091,7 L105.789091,31.2731122 C105.789091,35.1391055 102.655085,38.2731122 98.7890913,38.2731122 L51.2489764,38.2731122 C47.3829832,38.2731122 44.2489764,41.407119 44.2489764,45.2731122 L44.2489764,70.7720536 C44.2489764,74.6380469 47.3829832,77.7720536 51.2489764,77.7720536 L94.1599677,77.7720536 C98.0259609,77.7720536 101.159968,80.9060604 101.159968,84.7720536 L101.159968,107.819337 C101.159968,111.68533 98.0259609,114.819337 94.1599677,114.819337 L51.2489764,114.819337 C47.3829832,114.819337 44.2489764,117.953343 44.2489764,121.819337 L44.2489764,183.003529 C44.2489764,186.869522 41.1149697,190.003529 37.2489764,190.003529 L7,190.003529 C3.13400675,190.003529 1.36162605e-15,186.869522 8.8817842e-16,183.003529 L8.8817842e-16,7 C4.14730794e-16,3.13400675 3.13400675,-1.78006981e-16 7,-8.8817842e-16 Z M153.676488,0 L186.84764,-8.8817842e-16 C190.027962,-7.12178043e-15 192.808595,2.14392518 193.617457,5.21966732 L239.903029,181.223196 C240.88628,184.962062 238.652412,188.790095 234.913546,189.773345 C234.33244,189.926165 233.734077,190.003529 233.133213,190.003529 L199.885548,190.003529 C196.489774,190.003529 193.583776,187.566307 192.992484,184.222409 L188.365617,158.056349 C187.774325,154.712451 184.868327,152.275229 181.472553,152.275229 L156.935883,152.275229 C153.567767,152.275229 150.677163,154.673857 150.055968,157.984191 L145.118742,184.294567 C144.497547,187.604901 141.606943,190.003529 138.238828,190.003529 L107.769271,190.003529 C103.903278,190.003529 100.769271,186.869522 100.769271,183.003529 C100.769271,182.407378 100.845426,181.813669 100.995887,181.236818 L146.903103,5.23328985 C147.707098,2.15085646 150.490926,6.07906062e-15 153.676488,2.66453526e-15 Z M169.371467,51.8934368 L157.254055,118.224418 L181.216577,118.224418 L169.371467,51.8934368 Z M254.794268,0 L284.907094,0 C288.773087,-7.10171439e-16 291.907094,3.13400675 291.907094,7 L291.907094,125.8518 C291.907094,135.840088 293.291279,143.353892 296.05969,148.393437 C298.828101,153.432982 302.980656,155.952717 308.517479,155.952717 C314.326604,155.952717 318.660691,153.659985 321.51987,149.074453 C324.379049,144.488921 325.808617,137.610726 325.808617,128.439661 L325.808617,7 C325.808617,3.13400675 328.942624,-1.78006981e-16 332.808617,-8.8817842e-16 L363.193744,-8.8817842e-16 C367.059738,-8.46573341e-15 370.193744,3.13400675 370.193744,7 L370.193744,130.89132 C370.193744,150.68629 364.770463,165.986302 353.923736,176.791814 C343.07701,187.597325 327.805593,193 308.109027,193 C289.047834,193 274.230248,187.778928 263.655824,177.336627 C253.081401,166.894326 247.794268,151.412711 247.794268,130.89132 L247.794268,7 C247.794268,3.13400675 250.928275,-1.78006981e-16 254.794268,-8.8817842e-16 Z M401.428568,0 L434.572764,8.8817842e-16 C437.525493,3.45770996e-16 440.1607,1.85280818 441.159837,4.63135637 L461.14241,60.2018349 C467.586908,78.0899506 472.533667,93.5715648 475.982836,106.647142 L475.982836,106.647142 C477.218551,106.647142 478.220297,105.645397 478.220297,104.409681 C478.220297,104.384418 478.219869,104.359156 478.219013,104.333908 L477.212207,74.621672 C477.209531,74.5426801 477.208192,74.4636486 477.208192,74.3846115 L477.208192,7 C477.208192,3.13400675 480.342199,1.59834986e-15 484.208192,8.8817842e-16 L512.687209,-8.8817842e-16 C516.553203,-8.46573341e-15 519.687209,3.13400675 519.687209,7 L519.687209,183.003529 C519.687209,186.869522 516.553203,190.003529 512.687209,190.003529 L479.679164,190.003529 C476.726436,190.003529 474.091229,188.15072 473.092091,185.372172 L453.109519,129.801694 C446.66502,111.913578 441.718261,96.3865631 438.269093,83.2201835 L438.269093,83.2201835 C436.960688,83.2201835 435.900017,84.280855 435.900017,85.5892596 C435.900017,85.6160089 435.90047,85.6427563 435.901375,85.6694903 L436.90357,115.245653 C436.906247,115.324645 436.907586,115.403677 436.907586,115.482714 L436.907586,183.003529 C436.907586,186.869522 433.773579,190.003529 429.907586,190.003529 L401.428568,190.003529 C397.562575,190.003529 394.428568,186.869522 394.428568,183.003529 L394.428568,7 C394.428568,3.13400675 397.562575,7.10171439e-16 401.428568,0 Z M588.541813,0 L621.712966,-5.32907052e-15 C624.893287,-2.63899783e-16 627.673921,2.14392518 628.482782,5.21966732 L674.768355,181.223196 C675.751605,184.962062 673.517737,188.790095 669.778871,189.773345 C669.197765,189.926165 668.599402,190.003529 667.998538,190.003529 L634.750874,190.003529 C631.3551,190.003529 628.449101,187.566307 627.85781,184.222409 L623.230942,158.056349 C622.639651,154.712451 619.733653,152.275229 616.337878,152.275229 L591.801208,152.275229 C588.433093,152.275229 585.542489,154.673857 584.921294,157.984191 L579.984067,184.294567 C579.362872,187.604901 576.472268,190.003529 573.104153,190.003529 L542.634597,190.003529 C538.768603,190.003529 535.634597,186.869522 535.634597,183.003529 C535.634597,182.407378 535.710751,181.813669 535.861212,181.236818 L581.768429,5.23328985 C582.572423,2.15085646 585.356251,1.85135585e-14 588.541813,1.50990331e-14 Z M604.236792,51.8934368 L592.11938,118.224418 L616.081903,118.224418 L604.236792,51.8934368 Z"></path>
        </g>
    </g>
</svg>