<?xml version="1.0" encoding="UTF-8"?>
<svg width="40px" height="40px" viewBox="0 0 40 40" version="1.1" xmlns="http://www.w3.org/2000/svg" xmlns:xlink="http://www.w3.org/1999/xlink">
    <!-- Generator: Sketch 48.2 (47327) - http://www.bohemiancoding.com/sketch -->
    <title>Search</title>
    <desc>Created with Sketch.</desc>
    <defs>
        <radialGradient cx="30.0622626%" cy="5.9938597%" fx="30.0622626%" fy="5.9938597%" r="100.164081%" gradientTransform="translate(0.300623,0.059939),rotate(69.804721),scale(1.000000,0.745014),translate(-0.300623,-0.059939)" id="radialGradient-1">
            <stop stop-color="#00F260" offset="0%"></stop>
            <stop stop-color="#0575E6" offset="100%"></stop>
        </radialGradient>
        <radialGradient cx="30.0622626%" cy="5.9938597%" fx="30.0622626%" fy="5.9938597%" r="100.164081%" gradientTransform="translate(0.300623,0.059939),scale(0.400000,1.000000),rotate(47.398762),scale(1.000000,0.745014),translate(-0.300623,-0.059939)" id="radialGradient-2">
            <stop stop-color="#00F260" offset="0%"></stop>
            <stop stop-color="#0575E6" offset="100%"></stop>
        </radialGradient>
    </defs>
    <g id="Icons/Search" stroke="none" stroke-width="1" fill="none" fill-rule="evenodd">
        <g id="Search">
            <rect id="Rectangle-2-Copy" x="0" y="0" width="40" height="40"></rect>
            <g id="loupe" transform="translate(0.000000, 0.800000)" fill-rule="nonzero">
                <path d="M35.0351531,4.15896108 C29.4907266,-1.38632036 20.4695203,-1.38632036 14.9251703,4.15896108 C12.2392812,6.84514821 10.7602469,10.4167763 10.7602469,14.21568 C10.7602469,17.6763503 11.9882328,20.9479561 14.2371797,23.5339827 L12.5436937,25.2277531 L10.8178219,23.5015913 C10.6287125,23.3124501 10.3721516,23.2061635 10.1047187,23.2061635 C9.83728594,23.2061635 9.580725,23.3124501 9.39161563,23.5015913 L1.30577344,31.5888684 C0.463739063,32.4308911 0,33.5504995 0,34.7414761 C0,35.9323761 0.463739063,37.0520611 1.30562031,37.8940838 C2.14765469,38.7362596 3.267075,39.2 4.45769844,39.2 C5.64832188,39.2 6.76789531,38.736183 7.60977656,37.8941603 L15.6956953,29.8070363 C15.8848047,29.6178952 15.9910734,29.3612912 15.9910734,29.0938134 C15.9910734,28.8263357 15.8848047,28.5697316 15.6956953,28.3805905 L13.9698234,26.6544287 L15.6638453,24.9601222 C18.3276844,27.2738468 21.6536359,28.43136 24.9801234,28.43136 C28.6215125,28.43136 32.2629781,27.0450396 35.0351531,24.2724755 C37.7208125,21.5862117 39.2,18.0147369 39.2,14.2158331 C39.2,10.4166997 37.7209656,6.84514821 35.0351531,4.15896108 Z M6.18357031,36.4676379 C5.7225875,36.9286982 5.10970469,37.1826221 4.45769844,37.1826221 C3.80576875,37.1826221 3.19280938,36.9286216 2.73182656,36.4675613 C2.27092031,36.0065777 2.0169625,35.3935153 2.0169625,34.7415527 C2.0169625,34.08959 2.27092031,33.4764511 2.73190313,33.0153909 L7.2440375,28.5024985 L10.6957813,31.9546689 L6.18357031,36.4676379 Z M12.1221406,30.5281465 L8.67039687,27.0758229 L10.1047187,25.6412601 L13.5564625,29.0936603 L12.1221406,30.5281465 Z M33.6088703,22.8458765 C28.8509703,27.6047289 21.1093531,27.6047289 16.3514531,22.8458765 C14.0466156,20.5406518 12.7772859,17.4757995 12.7772859,14.21568 C12.7772859,10.9555605 14.0466156,7.8907082 16.3514531,5.58556007 C18.7304031,3.20621042 21.8553016,2.01645901 24.9802,2.01645901 C28.1050219,2.01645901 31.2299969,3.20605727 33.6089469,5.58556007 C35.9137844,7.8907082 37.1831141,10.9556371 37.1831141,14.21568 C37.1831141,17.4757229 35.9137078,20.5406518 33.6088703,22.8458765 Z" id="Shape" fill="url(#radialGradient-1)"></path>
                <path d="M32.2743802,6.92561005 C28.3734891,3.02487442 22.0264332,3.02471888 18.125542,6.92561005 C14.2248064,10.8265012 14.2248064,17.1735571 18.1256198,21.0744483 C20.0760654,23.0247383 22.6379549,24 25.2,24 C27.7620451,24 30.3240124,23.0247383 32.274458,21.0744483 L32.274458,21.0743705 C36.1751936,17.1736349 36.1751936,10.8265012 32.2743802,6.92561005 Z M30.8255645,19.6257103 C27.7235479,22.7277268 22.6763743,22.7277268 19.5743578,19.625788 C16.4723412,16.5237715 16.4723412,11.4765201 19.57428,8.3745036 C21.1254438,6.82326201 23.1623719,6.04803008 25.2,6.04803008 C27.2370837,6.04803008 29.2747895,6.82372865 30.8255645,8.3745036 C33.927581,11.4764424 33.927581,16.5236937 30.8255645,19.6257103 Z" id="Shape" fill="url(#radialGradient-1)"></path>
                <path d="M28.5083239,10.3175437 C26.4634157,8.2941521 23.1365087,8.2941521 21.0916761,10.3175437 C20.7027746,10.7023959 20.7027746,11.3263591 21.0916761,11.7113609 C21.4805776,12.096213 22.1111061,12.096213 22.5001588,11.7113609 C23.7681712,10.4564017 25.8318288,10.4564017 27.0999924,11.7113609 C27.2945188,11.9038618 27.5493007,12 27.8041582,12 C28.0590156,12 28.3139487,11.903787 28.5083239,11.7113609 C28.8972254,11.3265087 28.8972254,10.7024707 28.5083239,10.3175437 Z" id="Shape" fill="url(#radialGradient-2)"></path>
            </g>
        </g>
    </g>
</svg>