<?xml version="1.0" encoding="UTF-8"?>
<svg width="40px" height="40px" viewBox="0 0 40 40" version="1.1" xmlns="http://www.w3.org/2000/svg" xmlns:xlink="http://www.w3.org/1999/xlink">
    <!-- Generator: Sketch 48.2 (47327) - http://www.bohemiancoding.com/sketch -->
    <title>Icons/Stats view</title>
    <desc>Created with Sketch.</desc>
    <defs>
        <linearGradient x1="0%" y1="-13.8730138%" x2="74.1682485%" y2="94.8213385%" id="linearGradient-1">
            <stop stop-color="#00F260" offset="0%"></stop>
            <stop stop-color="#0575E6" offset="100%"></stop>
        </linearGradient>
    </defs>
    <g id="Symbols" stroke="none" stroke-width="1" fill="none" fill-rule="evenodd">
        <g id="Icons/Stats-view" fill="url(#linearGradient-1)" fill-rule="nonzero">
            <g id="List-view">
                <g transform="translate(20.000000, 20.500000) rotate(-270.000000) translate(-20.000000, -20.500000) translate(2.500000, 1.500000)">
                    <path d="M35.003163,7.08497766 L28.0019802,7.08497766 C27.4515153,7.08497766 27.0050609,7.56734884 27.0050609,8.16209817 L27.0050609,15.4853779 L21.9976344,15.4853779 L21.9976344,3.07712051 C21.9976344,2.48237118 21.55118,2 21.000715,2 L13.9993674,2 C13.4489024,2 13.002448,2.48237118 13.002448,3.07712051 L13.002448,23.4585274 L7.99502155,23.4585274 L7.99502155,14.3027359 C7.99502155,13.7078084 7.54856716,13.2256153 6.99810218,13.2256153 L-0.00308062414,13.2256153 C-0.553710448,13.2256153 -1,13.7078084 -1,14.3027359 L-1,34.9228795 C-1,35.5178069 -0.553545614,36 -0.00308062414,36 L6.99810218,36 L13.999285,36 L21.0006326,36 L28.0018978,36 L35.0030806,36 C35.5537104,36 36,35.5176288 36,34.9228795 L36,8.16209817 C36.0000824,7.56734884 35.5537929,7.08497766 35.003163,7.08497766 Z M6.00126522,33.845759 L0.993838752,33.845759 L0.993838752,15.3798564 L6.00126522,15.3798564 L6.00126522,33.845759 Z M13.0026129,33.845759 L7.99518639,33.845759 L7.99518639,25.6127684 L13.0026129,25.6127684 L13.0026129,33.845759 Z M20.0038781,16.5624984 L20.0038781,33.845759 L14.9963692,33.845759 L14.9963692,4.15424103 L20.0038781,4.15424103 L20.0038781,16.5624984 Z M27.0052257,33.845759 L21.9977992,33.845759 L21.9977992,17.6396189 L27.0052257,17.6396189 L27.0052257,33.845759 Z M34.0064085,33.845759 L28.9990645,33.845759 L28.9990645,16.5624984 L28.9990645,9.23921869 L34.0064909,9.23921869 L34.0064909,33.845759 L34.0064085,33.845759 Z" id="Shape" transform="translate(17.500000, 19.000000) rotate(-90.000000) translate(-17.500000, -19.000000) "></path>
                </g>
            </g>
        </g>
    </g>
</svg>