<?xml version="1.0" encoding="UTF-8"?>
<svg width="36px" height="48px" viewBox="0 0 36 48" version="1.1" xmlns="http://www.w3.org/2000/svg" xmlns:xlink="http://www.w3.org/1999/xlink">
    <!-- Generator: Sketch 48.2 (47327) - http://www.bohemiancoding.com/sketch -->
    <title>Icons / MapPin</title>
    <desc>Created with Sketch.</desc>
    <defs>
        <linearGradient x1="0%" y1="-13.8730138%" x2="74.1682485%" y2="94.8213385%" id="linearGradient-1">
            <stop stop-color="#00F260" offset="0%"></stop>
            <stop stop-color="#0575E6" offset="100%"></stop>
        </linearGradient>
    </defs>
    <g id="UI-Kit-1" stroke="none" stroke-width="1" fill="none" fill-rule="evenodd" transform="translate(-54.000000, -141.000000)">
        <g id="Icons" transform="translate(50.000000, 94.000000)">
            <g id="Icons-/-Pin" transform="translate(4.000000, 47.000000)">
                <g id="Pin">
                    <g id="Marker">
                        <path d="M2.58660225,27.1579362 C1.96112553,26.1289556 1.43679335,25.0322306 1.02732648,23.8814208 C0.740509253,23.1282041 0.543281561,22.4466739 0.4356434,21.8368303 C0.150469807,20.5708266 0,19.25414 0,17.9024662 C0,8.01520714 8.0511402,0 17.9827249,0 C27.9143097,0 35.9654499,8.01520714 35.9654499,17.9024662 C35.9654499,18.765905 35.9040499,19.615067 35.7853594,20.445861 C35.7158741,21.4471385 35.4300261,22.6019544 34.9278146,23.9103149 C34.5905546,24.8530131 34.176175,25.7592811 33.692234,26.6215971 C31.0953578,31.633203 26.10125,38.3460272 18.7099105,46.7600697 C18.3454226,47.1750091 17.713571,47.2158937 17.2986399,46.8513963 C17.2629481,46.8200427 17.2295359,46.7861856 17.1986571,46.7500821 C10.0628769,38.406914 5.19219192,31.8761987 2.58660225,27.1579362 Z" id="Combined-Shape" fill="url(#linearGradient-1)"></path>
                        <ellipse id="Oval-2" fill="#FBFBFB" cx="17.9684827" cy="17.8897074" rx="16.4167585" ry="16.3434889"></ellipse>
                    </g>
                    <g id="Bird-Icon" fill="#000">
                        <path d="M24.868167,32.1916626 C24.647627,31.3333632 23.7849054,31.9979107 22.8567352,31.3108098 C22.5741807,31.1016419 22.4611765,30.6200176 22.194164,30.1947899 C21.7769029,29.5302854 21.1559615,28.7138197 20.5379738,27.0400205 C20.298786,26.3921881 20.0300185,26.1600906 19.6989706,25.2373611 C19.6661773,25.1459562 19.6107546,24.8940414 19.854062,24.744012 C20.0973693,24.5939826 20.2616673,24.6740693 20.6058002,24.7444734 C20.8407086,24.7925319 21.198646,25.0511276 21.4457544,25.0882546 C21.6506527,25.1190397 21.8922158,24.9924493 22.0869849,25.0242859 C22.2166064,25.0454736 22.7500316,25.4108667 22.8605394,25.4752968 C22.9710472,25.5397269 22.8891576,25.84462 22.9487554,25.8186166 C23.0083659,25.7926076 23.4309785,25.429067 23.303046,25.0035782 C23.1830367,24.6044407 22.6244347,24.2067626 22.6181831,24.1664479 C22.566141,23.830846 21.9931887,22.994206 21.2925652,22.6638472 C20.6540652,22.3627809 19.8863725,22.5708484 19.7672725,22.2123749 C19.6092212,21.7366635 18.9622655,21.1101525 18.9723773,20.5813753 C18.9915486,19.5788538 19.1544601,18.8378812 19.239403,17.964139 C19.3387513,16.9422195 19.4618451,15.9046819 19.8161358,15.0896435 C19.9135826,14.8654691 19.8389031,14.2846614 19.8389031,14.0813148 C19.8389031,13.4431521 19.7018337,12.7943302 19.6411303,12.2146866 C19.5827558,11.6572809 19.3447464,10.4693255 19.7094322,9.18970037 C20.0421985,8.02207592 20.9847621,6.75087549 20.8609957,6.35846594 C20.7709555,6.07298784 19.4295111,8.52809819 19.1791851,8.58866009 C19.0022775,8.6314597 19.1462548,7.98552528 19.4675514,7.15141235 C19.8984978,6.03263949 20.6204138,4.63946025 20.4863154,4.53463741 C20.2690915,4.36483662 19.3891957,6.37526105 18.9373043,6.55037207 C18.8536936,6.58277181 18.7347274,6.03613464 18.8718556,5.19872357 C18.9803757,4.53601585 19.2223998,3.75780575 19.160222,3.76147584 C18.9025624,3.77668434 18.4962242,4.8337733 18.0978256,5.47715177 C18.0266065,5.5921642 17.9246414,4.95268043 17.8995773,4.33996276 C17.8709517,3.6401811 17.9198618,2.94840514 17.8341286,2.98831426 C17.5386154,3.12587672 17.3329157,4.68260134 17.058672,5.45505984 C16.9591942,5.73525747 16.5238353,3.23886063 16.4188681,3.33071117 C16.256564,3.47273388 16.0633955,6.44129665 15.9967511,6.44129665 C15.836061,6.44129665 15.1727067,4.79050373 15.0249484,4.85309671 C14.6530193,5.0106523 15.4297524,6.55815629 15.1781376,7.2775041 C15.1432498,7.3772456 14.773155,6.91831743 14.7361065,7.01978357 C14.6594281,7.22978545 14.7010691,7.45440268 14.6251232,7.68479257 C14.5829471,7.81273815 14.2697367,7.46496991 14.2272,7.59873192 C14.1486121,7.84586171 14.006137,8.3925289 14.006137,8.3925289 C14.006137,8.3925289 13.8288014,8.24211039 13.5854941,8.39213975 C13.364003,8.99271862 14.1491104,9.49854449 14.0929739,10.0015088 C14.0711915,10.1966723 13.2914531,9.90038159 13.2748359,10.1082771 C13.2518407,10.3959667 13.3848682,10.9021464 12.6108382,11.1805746 C12.6563866,11.5092012 12.897778,11.9316442 12.3447635,12.3389327 C12.1947578,12.7077369 12.2886289,13.1982283 12.5871198,13.6477816 C12.7411519,13.8797673 12.1030057,14.0454959 12.2335331,14.2187928 C12.3355098,14.354184 12.6966765,15.0668139 12.6966765,15.17109 C12.6966765,15.4329746 12.2013177,15.4778778 12.1877701,15.7500383 C12.1710823,16.0852825 12.4709919,16.4237202 12.4524182,16.7799976 C12.4421612,16.9767441 12.1533998,16.8355831 12.142711,17.0372567 C12.1282016,17.3110197 12.5939146,17.7360904 12.5842667,18.0244163 C12.5801232,18.1482404 12.322535,18.3278538 12.3186676,18.4533353 C12.3125508,18.6517947 12.6733476,18.8955 12.6720071,19.0971752 C12.6707388,19.2880137 12.2069897,19.6548407 12.2072087,19.8477834 C12.2074565,20.0660939 7.79716949,16.7737779 7.80918919,16.9916885 C7.82306248,17.2432037 7.36668253,17.4634071 7.27799099,17.8495265 C7.24672496,17.9856434 6.77848075,17.8324653 6.74726832,17.9779253 C6.70385888,18.1802275 6.81849855,18.3671127 6.81319257,18.6001347 C6.81029882,18.7272193 6.38735779,18.6586292 6.39297768,18.7929637 C6.40092448,18.9829192 6.79999942,19.2892257 6.85682505,19.5012337 C6.89901775,19.6586484 6.19334493,19.8582153 6.23741084,20.0157519 C6.31433326,20.2907513 7.02343033,20.5107794 7.27608889,20.767283 C7.36775968,20.8603489 7.02236312,20.9943956 7.07688957,21.0889722 C7.16659723,21.244571 7.62956444,21.2294 7.80633604,21.3683233 C7.9608432,21.4897492 7.65106722,21.8093741 7.7617525,21.9261025 C8.33014833,22.5255315 10.7464137,22.2068378 11.4981519,22.2072993 C12.1319901,22.2076883 12.8465371,22.7015712 13.3326762,23.1309516 C13.4475109,23.2323789 13.2781375,23.356851 13.2439847,23.517071 C13.2093964,23.6793339 13.4202035,23.9421055 13.4868165,24.0964808 C13.5621631,24.2710962 13.2992001,24.5770503 13.3758332,24.7614897 C13.4587764,24.9611164 13.895743,25.0346375 13.9724801,25.2553003 C14.0580163,25.5012653 13.8509645,25.786294 13.9720046,25.9847394 C14.1059437,26.2043329 14.4896848,26.2258166 14.6350513,26.3713202 C14.7819163,26.5183237 14.623715,26.8959415 14.7009755,26.9935296 C14.8283547,27.1544228 15.3256657,27.3711314 15.518638,27.6162004 C15.6276176,27.7546012 15.3100566,27.8447254 15.4299465,28.0023197 C15.592886,28.2165027 16.1526913,28.4485421 16.3581167,28.6894207 C16.5107358,28.8683794 16.3339551,29.0178479 16.4904407,29.2044003 C16.6623825,29.4093786 17.2170343,29.6826977 17.418611,29.8915012 C17.595522,30.0747548 17.2417035,29.9343009 17.6614428,30.470911 C18.0811822,31.0075212 18.5105784,30.6298506 18.7888124,30.8363227 C18.9746294,30.9742139 18.7826153,31.4400893 18.8988447,31.6301919 C19.0460186,31.8709069 19.7854104,31.1283021 20.0266898,31.2661645 C20.2242144,31.3790263 20.3260735,32.0404229 20.5346452,32.1460944 C20.7197344,32.2398687 20.9689563,31.5236543 21.1540594,31.6315762 C21.8171061,32.018157 22.0926291,32.4393951 22.6347686,32.6408278 C23.5495831,32.9807284 24.5574,32.8610181 24.8899833,32.6422121 C25.0082671,32.5643933 24.889671,32.2753519 24.868167,32.1916626 Z" id="Eagle" transform="translate(15.588571, 17.920000) rotate(-27.000000) translate(-15.588571, -17.920000) "></path>
                    </g>
                </g>
            </g>
        </g>
    </g>
</svg>