<?xml version="1.0" encoding="UTF-8"?>
<svg width="40px" height="47px" viewBox="0 0 40 47" version="1.1" xmlns="http://www.w3.org/2000/svg" xmlns:xlink="http://www.w3.org/1999/xlink">
    <!-- Generator: Sketch 48.2 (47327) - http://www.bohemiancoding.com/sketch -->
    <title>Bird Icon</title>
    <desc>Created with Sketch.</desc>
    <defs></defs>
    <g id="Symbols" stroke="none" stroke-width="1" fill="none" fill-rule="evenodd">
        <g id="Bird-Icon" fill="#03B2A5">
            <path d="M31.9056395,43.1138338 C31.6226886,41.9643257 30.5158244,42.8543447 29.3249901,41.9341203 C28.9624753,41.6539847 28.8174919,41.0089522 28.4749172,40.4394508 C27.9395748,39.5494894 27.1429125,38.4560085 26.3500398,36.2143132 C26.0431638,35.3466805 25.6983375,35.0358357 25.273606,33.8000372 C25.2315325,33.67762 25.1604257,33.340234 25.4725868,33.1393018 C25.784748,32.9383696 25.9955408,33.0456286 26.4370604,33.1399198 C26.7384458,33.2042838 27.1976763,33.5506174 27.5147143,33.600341 C27.7775969,33.641571 28.0875202,33.4720303 28.3374073,33.5146686 C28.5037105,33.543045 29.1880904,34.0324107 29.3298709,34.1187011 C29.4716514,34.2049914 29.3665878,34.6133303 29.4430513,34.5785043 C29.5195311,34.5436709 30.0617393,34.0567861 29.897603,33.4869351 C29.7436321,32.952376 29.0269507,32.4197713 29.0189299,32.3657785 C28.9521603,31.9163116 28.2170677,30.7958117 27.3181739,30.3533668 C26.4989839,29.950153 25.514041,30.2288149 25.3612367,29.7487164 C25.1584583,29.1116029 24.3284198,28.2725257 24.3413932,27.564342 C24.3659898,26.2216792 24.5750038,25.2293052 24.6839848,24.0591147 C24.8114478,22.6904726 24.9693761,21.3009132 25.4239279,20.209344 C25.5489513,19.9091104 25.4531381,19.131243 25.4531381,18.8589037 C25.4531381,18.0042215 25.2772793,17.1352637 25.1993974,16.3589553 C25.1245034,15.6124298 24.8191394,14.0214181 25.2870281,12.3076344 C25.7139643,10.7438517 26.9232652,9.04135111 26.7644739,8.51580259 C26.6489532,8.13346585 24.9278918,11.4215601 24.6067257,11.5026698 C24.3797549,11.5599907 24.5644765,10.6948999 24.9766972,9.5777844 C25.5295976,8.07942789 26.4558095,6.21356284 26.2837624,6.07317511 C26.005066,5.84576333 24.8761674,8.53829605 24.2963948,8.77281974 C24.189123,8.81621225 24.0364904,8.08410889 24.2124247,6.96257621 C24.351655,6.07502123 24.6621699,5.03277556 24.5823962,5.03769085 C24.2518213,5.05805938 23.730493,6.47380352 23.219351,7.33547112 C23.1279776,7.48950563 22.9971572,6.63305415 22.9650002,5.81245013 C22.9282738,4.87524255 22.991025,3.94875689 22.8810301,4.00220659 C22.5018892,4.18644203 22.2379784,6.27134108 21.8861261,7.30588371 C21.758497,7.6811484 21.1999353,4.33775977 21.0652633,4.46077389 C20.8570286,4.65098287 20.6091951,8.62673658 20.523691,8.62673658 C20.317527,8.62673658 19.4664492,6.41585321 19.2768766,6.4996831 C18.7996948,6.71069505 19.7962365,8.78324503 19.473417,9.74665728 C19.4286563,9.88023965 18.9538279,9.2656037 18.9062949,9.40149586 C18.8079172,9.68274837 18.8613423,9.98357502 18.7639043,10.2921329 C18.7097928,10.4634886 18.3079467,9.99772756 18.2533725,10.1768731 C18.1525449,10.5078505 17.9697506,11.2399941 17.9697506,11.2399941 C17.9697506,11.2399941 17.7422305,11.0385407 17.4300694,11.2394729 C17.1458982,12.0438196 18.1531842,12.7212649 18.0811615,13.3948778 C18.0532148,13.6562575 17.0528174,13.2594396 17.0314977,13.5378711 C17.0019951,13.9231697 17.1726681,14.6010889 16.1795944,14.9739838 C16.2380327,15.4141087 16.5477357,15.9798806 15.838223,16.5253563 C15.6457669,17.0192905 15.7662028,17.6761986 16.149164,18.2782789 C16.3467858,18.5889741 15.5280499,18.8109321 15.6955153,19.0430261 C15.8263506,19.2243536 16.2897243,20.1787686 16.2897243,20.318424 C16.2897243,20.6691624 15.6541833,20.7293006 15.6368018,21.0938013 C15.6153915,21.542789 16.0001728,21.9960539 15.9763429,22.473211 C15.9631834,22.7367108 15.592705,22.5476559 15.5789914,22.8177545 C15.5603759,23.1844014 16.1578817,23.7536925 16.1455034,24.1398433 C16.1401874,24.3056791 15.809704,24.5462328 15.8047421,24.7142884 C15.7968944,24.9800821 16.2597934,25.3064732 16.2580737,25.5765739 C16.2564463,25.8321612 15.6614604,26.3234474 15.6617414,26.5818528 C15.6620593,26.8742329 10.0036999,22.4648811 10.019121,22.7567257 C10.0369203,23.0935764 9.45138888,23.3884917 9.33759841,23.9056159 C9.29748437,24.0879153 8.69673116,23.882766 8.6566859,24.0775786 C8.60099197,24.3485189 8.74807366,24.5988117 8.74126613,24.9108947 C8.73755347,25.0810973 8.19492386,24.9892355 8.20213412,25.1691478 C8.21232979,25.4235525 8.72433943,25.8337844 8.79724622,26.1177237 C8.85137907,26.328547 7.94600705,26.5958241 8.00254323,26.8068106 C8.10123402,27.1751133 9.01099933,27.4697938 9.33515803,27.8133255 C9.45277086,27.9379673 9.0096301,28.1174942 9.07958705,28.2441593 C9.1946812,28.4525504 9.78866406,28.4322321 10.0154605,28.6182901 C10.2136918,28.7809141 9.81625193,29.2089831 9.95826018,29.3653159 C10.687507,30.1681226 13.7875542,29.7413007 14.7520278,29.7419186 C15.5652366,29.7424397 16.481994,30.40389 17.1057063,30.9789531 C17.2530382,31.1147932 17.0357336,31.2814969 16.9919158,31.4960772 C16.9475393,31.7133937 17.218003,32.0653198 17.3034669,32.2720724 C17.4001359,32.5059324 17.0627567,32.9156924 17.1610763,33.1627095 C17.2674918,33.4300666 17.828116,33.5285324 17.926569,33.8240629 C18.0363112,34.1534804 17.7706656,34.5352151 17.9259589,34.8009903 C18.0978016,35.0950887 18.5901381,35.1238615 18.776642,35.3187324 C18.9650685,35.5156121 18.7620977,36.0213502 18.8612222,36.1520485 C19.0246486,36.3675306 19.6626943,36.6577653 19.910276,36.9859826 C20.0500959,37.1713409 19.6426679,37.2920429 19.7964855,37.5031068 C20.0055356,37.789959 20.7237608,38.100726 20.9873198,38.4233313 C21.1831288,38.6630081 20.9563206,38.8631891 21.1570904,39.1130361 C21.3776902,39.3875606 22.0893035,39.753613 22.3479247,40.0332606 C22.5749,40.2786894 22.1209538,40.0905815 22.6594758,40.8092558 C23.1979977,41.5279301 23.7489093,41.0221213 24.105881,41.2986465 C24.3442825,41.4833222 24.0979301,42.1072624 24.2470514,42.3618642 C24.4358743,42.6842504 25.3845074,41.6896902 25.6940668,41.8743275 C25.9474891,42.0254817 26.0781735,42.9112807 26.3457691,43.052805 C26.583237,43.1783956 26.9029864,42.2191798 27.1404721,42.3637181 C27.9911551,42.8814603 28.3446487,43.4456185 29.0402089,43.7153944 C30.2139079,44.1706184 31.5069282,44.0102921 31.9336296,43.7172483 C32.0853866,43.6130267 31.9332289,43.2259177 31.9056395,43.1138338 Z" id="Eagle" transform="translate(20.000000, 24.000000) rotate(-27.000000) translate(-20.000000, -24.000000) "></path>
        </g>
    </g>
</svg>