<?xml version="1.0" encoding="UTF-8"?>
<svg width="40px" height="41px" viewBox="0 0 40 41" version="1.1" xmlns="http://www.w3.org/2000/svg" xmlns:xlink="http://www.w3.org/1999/xlink">
    <!-- Generator: Sketch 48.2 (47327) - http://www.bohemiancoding.com/sketch -->
    <title>Icons/CaptivityFilter </title>
    <desc>Created with Sketch.</desc>
    <defs>
        <linearGradient x1="0%" y1="-13.8730138%" x2="74.1682485%" y2="94.8213385%" id="linearGradient-1">
            <stop stop-color="#00F260" offset="0%"></stop>
            <stop stop-color="#0575E6" offset="100%"></stop>
        </linearGradient>
        <linearGradient x1="0%" y1="-4000.39025%" x2="72.5570889%" y2="-298.239593%" id="linearGradient-2">
            <stop stop-color="#00F260" offset="0%"></stop>
            <stop stop-color="#0575E6" offset="100%"></stop>
        </linearGradient>
    </defs>
    <g id="Symbols" stroke="none" stroke-width="1" fill="none" fill-rule="evenodd">
        <g id="Icons/CaptivityFilter-" fill-rule="nonzero">
            <g id="bird-cage">
                <g transform="translate(7.000000, 2.000000)">
                    <path d="M25.3485823,34.5314543 L25.1469302,34.5314543 L25.1469302,15.9387074 C25.1469302,10.3431163 20.9033792,5.6690107 15.3032363,4.64713847 C15.7352858,4.15556441 15.9956444,3.5240574 15.9956444,2.83606747 C15.9956444,1.27230451 14.6518185,0 12.9999566,0 C11.3480946,0 10.0042687,1.27230451 10.0042687,2.83606747 C10.0042687,3.52413961 10.2646274,4.15556441 10.6966769,4.64713847 C5.09653392,5.6690107 0.852982928,10.3431163 0.852982928,15.9387074 L0.852982928,34.5314543 L0.651330886,34.5314543 C0.291622549,34.5314543 0,34.807456 0,35.1480801 C0,35.4887042 0.291622549,35.7647059 0.651330886,35.7647059 L25.3486691,35.7647059 C25.7083775,35.7647059 26,35.4887042 26,35.1480801 C26,34.807456 25.7082906,34.5314543 25.3485823,34.5314543 Z M23.8443553,15.9387074 L23.8443553,34.5314543 L17.4831973,34.5314543 L17.4831973,15.9387074 C17.4831973,12.9671467 17.0726852,10.1648703 16.327389,8.04811736 C16.0217845,7.18007271 15.6728448,6.46306026 15.2870833,5.90258854 C20.1720649,6.89946688 23.8443553,11.020418 23.8443553,15.9387074 Z M12.9999566,5.67213494 C14.3280637,5.67213494 16.1805356,9.5779248 16.1805356,15.9387074 L16.1805356,34.5314543 L9.81937759,34.5314543 L9.81937759,15.9387074 C9.81937759,9.5779248 11.6718495,5.67213494 12.9999566,5.67213494 Z M11.3069305,2.83606747 C11.3069305,1.9522372 12.0663823,1.23325154 12.9999566,1.23325154 C13.9335308,1.23325154 14.6929827,1.9522372 14.6929827,2.83606747 C14.6929827,3.71989774 13.9335308,4.43888339 12.9999566,4.43888339 C12.0663823,4.43888339 11.3069305,3.71989774 11.3069305,2.83606747 Z M2.15555786,15.9387074 C2.15555786,11.020418 5.82784824,6.89946688 10.712743,5.90267076 C10.3269815,6.46314248 9.97812864,7.18015493 9.67243735,8.04819958 C8.92714113,10.1649525 8.51662898,12.9672289 8.51662898,15.9387896 L8.51662898,34.5315366 L2.15547101,34.5315366 L2.15547101,15.9387074 L2.15555786,15.9387074 Z" id="Shape" fill="url(#linearGradient-1)"></path>
                    <path d="M25.3309549,36.8823529 L1.75237843,36.8823529 C1.38288712,36.8823529 1.08333333,37.1324824 1.08333333,37.4411765 C1.08333333,37.7498706 1.38288712,38 1.75237843,38 L25.3309549,38 C25.7004462,38 26,37.7498706 26,37.4411765 C26,37.1324824 25.7004462,36.8823529 25.3309549,36.8823529 Z" id="Shape" fill="url(#linearGradient-2)"></path>
                </g>
            </g>
        </g>
    </g>
</svg>