<?xml version="1.0" encoding="UTF-8"?>
<svg width="40px" height="41px" viewBox="0 0 40 41" version="1.1" xmlns="http://www.w3.org/2000/svg" xmlns:xlink="http://www.w3.org/1999/xlink">
    <!-- Generator: Sketch 48.2 (47327) - http://www.bohemiancoding.com/sketch -->
    <title>Icons/CaptivityFilter </title>
    <desc>Created with Sketch.</desc>
    <defs>
        <linearGradient x1="0%" y1="-13.8730138%" x2="74.1682485%" y2="94.8213385%" id="linearGradient-1">
            <stop stop-color="#00F260" offset="0%"></stop>
            <stop stop-color="#0575E6" offset="100%"></stop>
        </linearGradient>
        <linearGradient x1="0%" y1="-4000.39025%" x2="72.5570889%" y2="-298.239593%" id="linearGradient-2">
            <stop stop-color="#00F260" offset="0%"></stop>
            <stop stop-color="#0575E6" offset="100%"></stop>
        </linearGradient>
    </defs>
    <g id="Symbols" stroke="none" stroke-width="1" fill="none" fill-rule="evenodd">
        <g id="Icons/CaptivityFilter-" fill-rule="nonzero">
            <g id="bird-cage">
                <g transform="translate(7.000000, 2.000000)">
                    <path d="M25.3485823,34.5314543 L25.1469302,34.5314543 L25.1469302,15.9387074 C25.1469302,10.3431163 20.9033792,5.6690107 15.3032363,4.64713847 C15.7352858,4.15556441 15.9956444,3.5240574 15.9956444,2.83606747 C15.9956444,1.27230451 14.6518185,0 12.9999566,0 C11.3480946,0 10.0042687,1.27230451 10.0042687,2.83606747 C10.0042687,3.52413961 10.2646274,4.15556441 10.6966769,4.64713847 C5.09653392,5.6690107 0.852982928,10.3431163 0.852982928,15.9387074 L0.852982928,34.5314543 L0.651330886,34.5314543 C0.291622549,34.5314543 0,34.807456 0,35.1480801 C0,35.4887042 0.291622549,35.7647059 0.651330886,35.7647059 L25.3486691,35.7647059 C25.7083775,35.7647059 26,35.4887042 26,35.1480801 C26,34.807456 25.7082906,34.5314543 25.3485823,34.5314543 Z M22.8193776,15.9387074 L22.8193776,34.5314543 L17.7501058,34.5314543 L17.7501058,15.9387074 C17.7501058,12.9671467 17.4229644,10.1648703 16.8290302,8.04811736 C16.5854909,7.18007271 16.3074173,6.56047172 16,6 C19.8928918,6.99687833 22.8193776,11.020418 22.8193776,15.9387074 Z M13,6 C14.0175301,6 15,10 15.1805356,15.9387074 L15.1805356,34.5314543 L10.3069305,34.5314543 L10.3069305,15.9387074 C10.3069305,9.5779248 11.9824699,6 13,6 Z M11.3069305,2.83606747 C11.3069305,1.9522372 12.0663823,1.23325154 12.9999566,1.23325154 C13.9335308,1.23325154 14.6929827,1.9522372 14.6929827,2.83606747 C14.6929827,3.71989774 13.9335308,4.43888339 12.9999566,4.43888339 C12.0663823,4.43888339 11.3069305,3.71989774 11.3069305,2.83606747 Z M10,6 C9.69258266,6.56047172 9.23395587,7.18015493 8.99034735,8.04819958 C8.39641317,10.1649525 8.06927184,12.9672289 8.06927184,15.9387896 L8.06927184,34.5315366 L3,34.5315366 L3,15.9387074 C3.00006921,11.020418 6.10717737,6.99679612 10,6 Z" id="Shape" fill="url(#linearGradient-1)"></path>
                    <path d="M25.3851993,36.8823529 L0.781467346,36.8823529 C0.395911202,36.8823529 0.0833333333,37.1324824 0.0833333333,37.4411765 C0.0833333333,37.7498706 0.395911202,38 0.781467346,38 L25.3851993,38 C25.7707555,38 26.0833333,37.7498706 26.0833333,37.4411765 C26.0833333,37.1324824 25.7707555,36.8823529 25.3851993,36.8823529 Z" id="Shape" fill="url(#linearGradient-2)"></path>
                </g>
            </g>
        </g>
    </g>
</svg>