<?xml version="1.0" encoding="UTF-8"?>
<svg width="36px" height="48px" viewBox="0 0 36 48" version="1.1" xmlns="http://www.w3.org/2000/svg" xmlns:xlink="http://www.w3.org/1999/xlink">
    <!-- Generator: Sketch 48.2 (47327) - http://www.bohemiancoding.com/sketch -->
    <title>Icons / MapPinCoyote</title>
    <desc>Created with Sketch.</desc>
    <defs>
        <linearGradient x1="0%" y1="-13.8730138%" x2="74.1682485%" y2="94.8213385%" id="linearGradient-1">
            <stop stop-color="#00F260" offset="0%"></stop>
            <stop stop-color="#0575E6" offset="100%"></stop>
        </linearGradient>
    </defs>
    <g id="UI-Kit-1" stroke="none" stroke-width="1" fill="none" fill-rule="evenodd" transform="translate(-54.000000, -141.000000)">
        <g id="Icons" transform="translate(50.000000, 94.000000)">
            <g id="Icons-/-Pin" transform="translate(4.000000, 47.000000)">
                <g id="Pin">
                    <g id="Marker">
                        <path d="M2.58660225,27.1579362 C1.96112553,26.1289556 1.43679335,25.0322306 1.02732648,23.8814208 C0.740509253,23.1282041 0.543281561,22.4466739 0.4356434,21.8368303 C0.150469807,20.5708266 0,19.25414 0,17.9024662 C0,8.01520714 8.0511402,0 17.9827249,0 C27.9143097,0 35.9654499,8.01520714 35.9654499,17.9024662 C35.9654499,18.765905 35.9040499,19.615067 35.7853594,20.445861 C35.7158741,21.4471385 35.4300261,22.6019544 34.9278146,23.9103149 C34.5905546,24.8530131 34.176175,25.7592811 33.692234,26.6215971 C31.0953578,31.633203 26.10125,38.3460272 18.7099105,46.7600697 C18.3454226,47.1750091 17.713571,47.2158937 17.2986399,46.8513963 C17.2629481,46.8200427 17.2295359,46.7861856 17.1986571,46.7500821 C10.0628769,38.406914 5.19219192,31.8761987 2.58660225,27.1579362 Z" id="Combined-Shape" fill="url(#linearGradient-1)"></path>
                        <ellipse id="Oval-2" fill="#FBFBFB" cx="17.9684827" cy="17.8897074" rx="16.4167585" ry="16.3434889"></ellipse>
                    </g>
                    <g id="Coyote-Icon" fill="#03B2A5">
                        <path d="M18.7144682,29.7822656 C20.8130448,29.7822656 24.960553,29.937487 25.2516018,29.1817969 C25.6787627,28.5613241 25.9252291,27.8391276 25.4141097,26.5396615 C26.7637427,20.1181641 22.5445338,18.653724 19.8486928,16.3596745 C19.5651923,15.8744075 18.5720836,15.0303125 18.2018978,13.6567676 C18.3753235,13.0864453 17.9263204,13.237743 17.9904141,12.911263 C18.0233252,12.7436202 17.9904141,12.4440495 17.733998,12.350944 C17.5250558,12.2750764 17.7433514,12.2001832 17.6715829,12.0060938 C17.5286721,11.619609 18.9711696,13.1555339 19.3444238,12.350944 C19.6173713,11.5348014 19.0601303,10.4585514 18.8412015,9.89155599 C19.0669332,7.94176432 18.1296773,7.99407879 17.8809021,7.03591146 C17.6994138,6.33690274 18.1598606,5.22666667 17.5371429,5.22666667 C17.0192031,5.22666667 16.6497322,5.41266501 16.368,5.97333333 C16.1307021,6.44557414 16.0026309,7.46666667 15.5885714,7.46666667 C14.8091429,7.46666667 14.8091429,6.72 14.8091429,6.72 C14.8091429,6.72 14.3705043,6.70195903 14.0297143,6.72 C13.7034928,6.73726973 14.2711212,8.1349707 14.1149881,8.68182292 C14.6353604,8.45414063 14.2907535,9.27812177 13.8468692,9.7375651 C13.7330339,9.8553906 14.3175632,9.68802594 14.1992866,9.81107422 C13.9530062,10.0672905 13.8468692,10.3089128 13.584245,10.6506185 C13.4996293,10.7607137 14.0695229,10.5633232 13.9804291,10.6745215 C12.0739844,13.0539614 12.2168198,15.8690845 12.2168198,17.8160026 C12.2168198,18.0829899 12.6187388,17.5528162 12.6200446,17.8160026 C12.6235997,18.5325317 12.6087154,18.5336284 12.6200446,19.2315202 C12.6224225,19.3779955 12.9736,18.8337001 12.9766484,18.9798665 C12.988342,19.5405554 13.2526295,19.8882575 13.2716458,20.4504818 C13.2771253,20.6124842 13.7042367,19.9395391 13.7102171,20.101416 C13.7219692,20.4195213 14.1034342,20.5635151 14.1149881,20.8857943 C14.1949059,23.1149878 14.1149881,25.676875 13.7102171,27.7463411 C13.6370552,28.1203947 12.2623943,28.7142643 11.6890975,29.3639518 C11.7154466,29.49186 11.4721191,29.6111849 11.7773446,29.7822656 C12.08257,29.9533464 12.505774,29.65762 12.9122828,29.7822656 C13.0173541,29.8144831 13.7102171,29.1221875 14.3610095,28.6941667 C14.7574147,28.4334542 14.9750742,27.5194794 15.276781,26.8624089 C16.1782229,24.899208 16.6586404,22.0179416 16.8472458,22.063125 C17.3389556,22.3145052 18.1404579,22.7026042 18.4299844,23.1971615 C18.0136295,23.6513411 17.7561235,24.1745434 17.733998,24.6754557 C17.7120959,25.1713131 17.748365,25.8111784 18.059204,26.5396615 C18.0380299,26.786517 17.6301472,26.4860221 17.3862427,26.5396615 C17.3690484,26.6649567 17.6858673,26.8898702 17.6715829,27.0178125 C16.9256454,27.1318815 16.2770889,27.445013 15.5885714,28.3035612 C15.572419,28.4491891 15.9538505,28.3362313 15.9856595,28.4761458 C16.0798575,28.8904838 14.9850186,29.2868424 14.7359763,29.7195573 C15.6540313,29.8744141 18.5862832,29.7822656 18.7144682,29.7822656 Z" id="Oval"></path>
                    </g>
                </g>
            </g>
        </g>
    </g>
</svg>