<?xml version="1.0" encoding="UTF-8"?>
<svg width="40px" height="40px" viewBox="0 0 40 40" version="1.1" xmlns="http://www.w3.org/2000/svg" xmlns:xlink="http://www.w3.org/1999/xlink">
    <!-- Generator: Sketch 48.2 (47327) - http://www.bohemiancoding.com/sketch -->
    <title>Icons/DateFilter</title>
    <desc>Created with Sketch.</desc>
    <defs>
        <linearGradient x1="0%" y1="-13.8730138%" x2="74.1682485%" y2="94.8213385%" id="linearGradient-1">
            <stop stop-color="#00F260" offset="0%"></stop>
            <stop stop-color="#0575E6" offset="100%"></stop>
        </linearGradient>
    </defs>
    <g id="Symbols" stroke="none" stroke-width="1" fill="none" fill-rule="evenodd">
        <g id="Icons/DateFilter">
            <g>
                <rect id="Rectangle-2-Copy-2" x="0" y="0" width="40" height="40"></rect>
                <g id="calendar" transform="translate(0.000000, 5.000000)" fill="url(#linearGradient-1)" fill-rule="nonzero">
                    <ellipse id="Oval" cx="32.2877193" cy="10.561151" rx="1" ry="1"></ellipse>
                    <ellipse id="Oval" cx="26.1244444" cy="10.561151" rx="1" ry="1"></ellipse>
                    <ellipse id="Oval" cx="19.9610916" cy="10.561151" rx="1" ry="1"></ellipse>
                    <ellipse id="Oval" cx="13.7978168" cy="10.561151" rx="1" ry="1"></ellipse>
                    <ellipse id="Oval" cx="7.63446394" cy="10.561151" rx="1" ry="1"></ellipse>
                    <ellipse id="Oval" cx="32.2877193" cy="16.6846632" rx="1" ry="1"></ellipse>
                    <ellipse id="Oval" cx="26.1244444" cy="16.6846632" rx="1" ry="1"></ellipse>
                    <ellipse id="Oval" cx="19.9610916" cy="16.6846632" rx="1" ry="1"></ellipse>
                    <ellipse id="Oval" cx="7.63446394" cy="16.6846632" rx="1" ry="1"></ellipse>
                    <ellipse id="Oval" cx="32.2877193" cy="22.808098" rx="1" ry="1"></ellipse>
                    <ellipse id="Oval" cx="26.1244444" cy="22.808098" rx="1" ry="1"></ellipse>
                    <ellipse id="Oval" cx="19.9610916" cy="22.808098" rx="1" ry="1"></ellipse>
                    <ellipse id="Oval" cx="13.7978168" cy="22.808098" rx="1" ry="1"></ellipse>
                    <ellipse id="Oval" cx="7.63446394" cy="22.808098" rx="1" ry="1"></ellipse>
                    <path d="M16.6939571,12.9876251 L10.9013645,12.9876251 C10.445692,12.9876251 10.0764133,13.3545168 10.0764133,13.8072438 L10.0764133,19.5624699 C10.0764133,20.0151969 10.445692,20.3820886 10.9013645,20.3820886 L16.6939571,20.3820886 C17.1496296,20.3820886 17.5189084,20.0151969 17.5189084,19.5624699 L17.5189084,13.8073988 C17.5189084,13.3545943 17.1495517,12.9876251 16.6939571,12.9876251 Z M15.8690058,18.7427738 L11.7263158,18.7427738 L11.7263158,14.62694 L15.8689279,14.62694 L15.8689279,18.7427738 L15.8690058,18.7427738 Z" id="Shape"></path>
                    <path d="M37.1721637,2.02301725 L31.1129825,2.02301725 L31.1129825,0.971069973 C31.1129825,0.468065798 30.7026121,0.060348106 30.1963353,0.060348106 C29.6902144,0.060348106 29.2796881,0.468143267 29.2796881,0.971069973 L29.2796881,2.02301725 L24.2893567,2.02301725 L24.2893567,0.971069973 C24.2893567,0.468065798 23.8789084,0.060348106 23.3727096,0.060348106 C22.8664327,0.060348106 22.4560624,0.468143267 22.4560624,0.971069973 L22.4560624,2.02301725 L17.4658869,2.02301725 L17.4658869,0.971069973 C17.4658869,0.468065798 17.0555166,0.060348106 16.5492398,0.060348106 C16.042963,0.060348106 15.6325926,0.468143267 15.6325926,0.971069973 L15.6325926,2.02301725 L10.6422612,2.02301725 L10.6422612,0.971069973 C10.6422612,0.468065798 10.2318908,0.060348106 9.72561404,0.060348106 C9.21933723,0.060348106 8.80896686,0.468143267 8.80896686,0.971069973 L8.80896686,2.02301725 L2.7497076,2.02301725 C1.23360624,2.02301725 0,3.24857186 0,4.75502792 L0,27.1103989 C0,28.616855 1.23360624,29.842487 2.74986355,29.842487 L37.1722417,29.842487 C38.688499,29.842487 39.9221053,28.616855 39.9221053,27.1103989 L39.9221053,4.75502792 C39.9220273,3.24857186 38.6883431,2.02301725 37.1721637,2.02301725 Z M37.1721637,28.0211982 L2.74986355,28.0211982 C2.24444444,28.0211982 1.83321637,27.6126284 1.83321637,27.1104764 L1.83321637,4.75502792 C1.83321637,4.2528759 2.24444444,3.84430605 2.74986355,3.84430605 L8.80904483,3.84430605 L8.80904483,4.89617586 C8.80904483,5.3990251 9.2194152,5.80689773 9.72569201,5.80689773 C10.2319688,5.80689773 10.6423392,5.39910257 10.6423392,4.89617586 L10.6423392,3.84430605 L15.6326706,3.84430605 L15.6326706,4.89617586 C15.6326706,5.3990251 16.0430409,5.80689773 16.5493177,5.80689773 C17.0555945,5.80689773 17.4659649,5.39910257 17.4659649,4.89617586 L17.4659649,3.84430605 L22.4561404,3.84430605 L22.4561404,4.89617586 C22.4561404,5.3990251 22.8665107,5.80689773 23.3727875,5.80689773 C23.8789084,5.80689773 24.2894347,5.39910257 24.2894347,4.89617586 L24.2894347,3.84430605 L29.2797661,3.84430605 L29.2797661,4.89617586 C29.2797661,5.3990251 29.6902144,5.80689773 30.1964133,5.80689773 C30.7026901,5.80689773 31.1130604,5.39910257 31.1130604,4.89617586 L31.1130604,3.84430605 L37.1722417,3.84430605 C37.6776608,3.84430605 38.0888889,4.2528759 38.0888889,4.75502792 L38.0888889,27.1103989 L38.0889669,27.1103989 C38.0888109,27.6126284 37.6775828,28.0211982 37.1721637,28.0211982 Z" id="Shape"></path>
                </g>
            </g>
        </g>
    </g>
</svg>