<?xml version="1.0" encoding="UTF-8"?>
<svg width="40px" height="40px" viewBox="0 0 40 40" version="1.1" xmlns="http://www.w3.org/2000/svg" xmlns:xlink="http://www.w3.org/1999/xlink">
    <!-- Generator: Sketch 48.2 (47327) - http://www.bohemiancoding.com/sketch -->
    <title>Icons / FilterButton2</title>
    <desc>Created with Sketch.</desc>
    <defs>
        <linearGradient x1="0%" y1="-13.8730138%" x2="74.1682485%" y2="94.8213385%" id="linearGradient-1">
            <stop stop-color="#00F260" offset="0%"></stop>
            <stop stop-color="#0575E6" offset="100%"></stop>
        </linearGradient>
    </defs>
    <g id="Symbols" stroke="none" stroke-width="1" fill="none" fill-rule="evenodd">
        <g id="Icons-/-FilterButton2">
            <rect id="Rectangle-2-Copy" x="0" y="0" width="40" height="40"></rect>
            <g id="FilterButton2" transform="translate(0.000000, 4.000000)" fill="url(#linearGradient-1)" fill-rule="nonzero">
                <g id="settings-2">
                    <path d="M38.0124238,3.52750012 L13.9612043,3.52750012 L13.9612043,2.57966726 C13.9612043,1.189482 12.8264482,0.0584941336 11.4316311,0.0584941336 L7.50632622,0.0584941336 C6.11150915,0.0584941336 4.97675305,1.189482 4.97675305,2.57966726 L4.97675305,3.52750012 L1.01181402,3.52750012 C0.452972561,3.52750012 0,3.97912041 0,4.53603014 C0,5.09293987 0.452972561,5.5444842 1.01181402,5.5444842 L4.97660061,5.5444842 L4.97660061,6.49201319 C4.97660061,7.88219845 6.11135671,9.01318632 7.50617378,9.01318632 L11.4315549,9.01318632 C12.826372,9.01318632 13.961128,7.88219845 13.961128,6.49201319 L13.961128,5.5444842 L38.0124238,5.5444842 C38.5712652,5.5444842 39.0242378,5.09286391 39.0242378,4.53603014 C39.024314,3.97912041 38.5712652,3.52750012 38.0124238,3.52750012 Z M11.9375762,6.49201319 C11.9375762,6.77005024 11.7105945,6.9962782 11.4316311,6.9962782 L7.50625,6.9962782 C7.22728659,6.9962782 7.00030488,6.77005024 7.00030488,6.49201319 L7.00030488,2.57966726 C7.00030488,2.30163021 7.22728659,2.07540224 7.50625,2.07540224 L11.4316311,2.07540224 C11.7105945,2.07540224 11.9375762,2.30163021 11.9375762,2.57966726 L11.9375762,6.49201319 Z" id="Shape"></path>
                    <path d="M38.0125762,14.7598931 L34.0477134,14.7598931 L34.0477134,13.8117564 C34.0477134,12.4215711 32.9129573,11.2905832 31.5181402,11.2905832 L27.5927591,11.2905832 C26.1979421,11.2905832 25.063186,12.4215711 25.063186,13.8117564 L25.063186,14.7598931 L1.01181402,14.7598931 C0.452972561,14.7598931 0,15.2114374 0,15.7683471 C0,16.3252569 0.452972561,16.7768012 1.01181402,16.7768012 L25.0631098,16.7768012 L25.0631098,17.7240263 C25.0631098,19.1142116 26.1978659,20.2451995 27.5926829,20.2451995 L31.518064,20.2451995 C32.9128811,20.2451995 34.0476372,19.1142116 34.0476372,17.7240263 L34.0476372,16.7768012 L38.0125,16.7768012 C38.5713415,16.7768012 39.024314,16.3251809 39.024314,15.7683471 C39.0243902,15.2114374 38.5714177,14.7598931 38.0125762,14.7598931 Z M32.0240091,17.7241023 C32.0240091,18.0021393 31.7970274,18.2283673 31.518064,18.2283673 L27.5926829,18.2283673 C27.3137195,18.2283673 27.0867378,18.0021393 27.0867378,17.7241023 L27.0867378,13.8117564 C27.0867378,13.5337193 27.3137195,13.3074913 27.5926829,13.3074913 L31.518064,13.3074913 C31.7970274,13.3074913 32.0240091,13.5337193 32.0240091,13.8117564 L32.0240091,17.7241023 Z" id="Shape"></path>
                    <path d="M38.0125762,26.8172053 L21.0695122,26.8172053 L21.0695122,25.8696763 C21.0695122,24.479491 19.9347561,23.3485032 18.539939,23.3485032 L14.6145579,23.3485032 C13.2197409,23.3485032 12.0849848,24.479491 12.0849848,25.8696763 L12.0849848,26.8172053 L1.01181402,26.8172053 C0.452972561,26.8172053 0,27.2688256 0,27.8256593 C0,28.3825691 0.452972561,28.8341134 1.01181402,28.8341134 L12.0849085,28.8341134 L12.0849085,29.7819462 C12.0849085,31.1721315 13.2196646,32.3031194 14.6144817,32.3031194 L18.5398628,32.3031194 C19.9346799,32.3031194 21.069436,31.1721315 21.069436,29.7819462 L21.069436,28.8341134 L38.0125,28.8341134 C38.5713415,28.8341134 39.024314,28.3824931 39.024314,27.8256593 C39.0243902,27.2686736 38.5714177,26.8172053 38.0125762,26.8172053 Z M19.0458079,29.7820222 C19.0458079,30.0600593 18.8188262,30.2862872 18.5398628,30.2862872 L14.6144817,30.2862872 C14.3355183,30.2862872 14.1085366,30.0600593 14.1085366,29.7820222 L14.1085366,25.8696763 C14.1085366,25.5916392 14.3355183,25.3654113 14.6144817,25.3654113 L18.5398628,25.3654113 C18.8188262,25.3654113 19.0458079,25.5916392 19.0458079,25.8696763 L19.0458079,29.7820222 Z" id="Shape"></path>
                </g>
            </g>
        </g>
    </g>
</svg>