<?xml version="1.0" encoding="UTF-8"?>
<svg width="40px" height="40px" viewBox="0 0 40 40" version="1.1" xmlns="http://www.w3.org/2000/svg" xmlns:xlink="http://www.w3.org/1999/xlink">
    <!-- Generator: Sketch 48.2 (47327) - http://www.bohemiancoding.com/sketch -->
    <title>Icons/Help</title>
    <desc>Created with Sketch.</desc>
    <defs>
        <linearGradient x1="0%" y1="-13.8730138%" x2="74.1682485%" y2="94.8213385%" id="linearGradient-1">
            <stop stop-color="#00F260" offset="0%"></stop>
            <stop stop-color="#0575E6" offset="100%"></stop>
        </linearGradient>
    </defs>
    <g id="Symbols" stroke="none" stroke-width="1" fill="none" fill-rule="evenodd">
        <g id="Icons/Help">
            <g>
                <rect id="Rectangle-2-Copy" x="0" y="0" width="40" height="40"></rect>
                <path d="M18.9096166,33.8225806 L20.0125022,33.8225806 C21.1170717,33.8225806 22.0125022,34.7180111 22.0125022,35.8225806 L22.0125022,37.15625 C22.0125022,38.2608195 21.1170717,39.15625 20.0125022,39.15625 L18.9096166,39.15625 C17.8050471,39.15625 16.9096166,38.2608195 16.9096166,37.15625 L16.9096166,35.8225806 C16.9096166,34.7180111 17.8050471,33.8225806 18.9096166,33.8225806 Z M11.3964488,4.37200731 C13.4820607,2.1239912 16.3454603,1 19.9867335,1 C23.3544839,1 26.051208,1.96158943 28.0769868,3.88479713 C30.1027656,5.80800483 31.1156398,8.26540003 31.1156398,11.2570565 C31.1156398,13.0691455 30.7438252,14.5393089 30.0001849,15.6675907 C29.2565446,16.7958726 27.7564651,18.4540801 25.4999014,20.6422631 C23.8587641,22.2321148 22.7946052,23.57834 22.3073926,24.6809791 C22.0678541,25.2230925 21.8724797,26.2509999 21.7212695,27.7647012 L21.7212698,27.7647012 C21.6191284,28.7871953 20.7587575,29.5659022 19.7311743,29.5659022 L19.1832255,29.5659038 C18.0786551,29.5659038 17.1832239,28.6704726 17.1832239,27.5659022 C17.1832239,27.4977892 17.1867034,27.4297207 17.1936489,27.3619627 C17.3727916,25.6142968 17.602921,24.3787337 17.884037,23.6552734 C18.4652731,22.1594452 19.7388448,20.4456792 21.7047905,18.5139239 L23.7562018,16.4881552 C24.3716282,15.9069191 24.867381,15.3000494 25.243475,14.6675277 C25.9272821,13.5563411 26.2691806,12.4024337 26.2691806,11.2057712 C26.2691806,9.53044357 25.7691541,8.07737511 24.7690861,6.84652218 C23.7690181,5.61566925 22.1150843,5.00025202 19.807235,5.00025202 C16.9523401,5.00025202 14.9778764,6.06013725 13.8837849,8.17993952 C13.5223357,8.87271723 13.2073251,10.275315 12.9387531,12.3877327 L12.9387571,12.3877332 C12.8623298,12.9888623 12.5174841,13.5229259 12.0010597,13.8399482 C10.0160278,15.0585185 8.8667755,14.8728108 8.55330283,13.2828251 C8.02091138,10.5824469 9.31083684,6.62002342 11.3964488,4.37200731 Z" id="?" fill="url(#linearGradient-1)"></path>
            </g>
        </g>
    </g>
</svg>