<?xml version="1.0" encoding="UTF-8"?>
<svg width="40px" height="40px" viewBox="0 0 40 40" version="1.1" xmlns="http://www.w3.org/2000/svg" xmlns:xlink="http://www.w3.org/1999/xlink">
    <!-- Generator: Sketch 48.2 (47327) - http://www.bohemiancoding.com/sketch -->
    <title>Icons/ListView</title>
    <desc>Created with Sketch.</desc>
    <defs>
        <linearGradient x1="0%" y1="-13.8730138%" x2="74.1682485%" y2="94.8213385%" id="linearGradient-1">
            <stop stop-color="#00F260" offset="0%"></stop>
            <stop stop-color="#0575E6" offset="100%"></stop>
        </linearGradient>
    </defs>
    <g id="Symbols" stroke="none" stroke-width="1" fill="none" fill-rule="evenodd">
        <g id="Icons/ListView">
            <g id="CardView">
                <g transform="translate(3.000000, 3.000000)">
                    <path d="M13.1229546,2 L33,2 C33.5522847,2 34,2.44771525 34,3 C34,3.55228475 33.5522847,4 33,4 L13.1229546,4 C12.5706699,4 12.1229546,3.55228475 12.1229546,3 C12.1229546,2.44771525 12.5706699,2 13.1229546,2 Z M13.1229546,6 L33,6 C33.5522847,6 34,6.44771525 34,7 C34,7.55228475 33.5522847,8 33,8 L13.1229546,8 C12.5706699,8 12.1229546,7.55228475 12.1229546,7 C12.1229546,6.44771525 12.5706699,6 13.1229546,6 Z M1,0 L8.66666667,0 C9.21895142,-1.08250786e-15 9.66666667,0.44771525 9.66666667,1 L9.66666667,9 C9.66666667,9.55228475 9.21895142,10 8.66666667,10 L1,10 C0.44771525,10 6.76353751e-17,9.55228475 0,9 L0,1 C-6.76353751e-17,0.44771525 0.44771525,1.01453063e-16 1,0 Z M13.1229546,14 L33,14 C33.5522847,14 34,14.4477153 34,15 C34,15.5522847 33.5522847,16 33,16 L13.1229546,16 C12.5706699,16 12.1229546,15.5522847 12.1229546,15 C12.1229546,14.4477153 12.5706699,14 13.1229546,14 Z M13.1229546,18 L33,18 C33.5522847,18 34,18.4477153 34,19 C34,19.5522847 33.5522847,20 33,20 L13.1229546,20 C12.5706699,20 12.1229546,19.5522847 12.1229546,19 C12.1229546,18.4477153 12.5706699,18 13.1229546,18 Z M1,12 L8.66666667,12 C9.21895142,12 9.66666667,12.4477153 9.66666667,13 L9.66666667,21 C9.66666667,21.5522847 9.21895142,22 8.66666667,22 L1,22 C0.44771525,22 6.76353751e-17,21.5522847 0,21 L0,13 C-6.76353751e-17,12.4477153 0.44771525,12 1,12 Z M13.1229546,26 L33,26 C33.5522847,26 34,26.4477153 34,27 C34,27.5522847 33.5522847,28 33,28 L13.1229546,28 C12.5706699,28 12.1229546,27.5522847 12.1229546,27 C12.1229546,26.4477153 12.5706699,26 13.1229546,26 Z M13.1229546,30 L33,30 C33.5522847,30 34,30.4477153 34,31 C34,31.5522847 33.5522847,32 33,32 L13.1229546,32 C12.5706699,32 12.1229546,31.5522847 12.1229546,31 C12.1229546,30.4477153 12.5706699,30 13.1229546,30 Z M1,24 L8.66666667,24 C9.21895142,24 9.66666667,24.4477153 9.66666667,25 L9.66666667,33 C9.66666667,33.5522847 9.21895142,34 8.66666667,34 L1,34 C0.44771525,34 6.76353751e-17,33.5522847 0,33 L0,25 C-6.76353751e-17,24.4477153 0.44771525,24 1,24 Z" id="Combined-Shape" fill="url(#linearGradient-1)"></path>
                    <rect id="Inside" fill="#FFFFFF" x="2" y="2" width="6" height="6"></rect>
                    <rect id="Inside" fill="#FFFFFF" x="2" y="14" width="6" height="6"></rect>
                    <rect id="Inside" fill="#FFFFFF" x="2" y="26" width="6" height="6"></rect>
                </g>
            </g>
        </g>
    </g>
</svg>
