<?xml version="1.0" encoding="UTF-8"?>
<svg width="40px" height="40px" viewBox="0 0 40 40" version="1.1" xmlns="http://www.w3.org/2000/svg" xmlns:xlink="http://www.w3.org/1999/xlink">
    <!-- Generator: Sketch 48.2 (47327) - http://www.bohemiancoding.com/sketch -->
    <title>Icons/MapView Inverse</title>
    <desc>Created with Sketch.</desc>
    <defs></defs>
    <g id="Symbols" stroke="none" stroke-width="1" fill="none" fill-rule="evenodd">
        <g id="Icons/MapView-Inverse" fill="#FFFFFF" fill-rule="nonzero">
            <g id="MapView">
                <g id="map" transform="translate(0.000000, 2.926829)">
                    <path d="M5.64787524,3.32704178 C4.37426901,3.32704178 3.3380117,4.35404009 3.3380117,5.6162666 C3.3380117,6.87857039 4.37426901,7.9055687 5.64787524,7.9055687 C6.92148148,7.9055687 7.95773879,6.87857039 7.95773879,5.6162666 C7.95773879,4.35404009 6.92148148,3.32704178 5.64787524,3.32704178 Z M5.64787524,6.25866216 C5.29044834,6.25866216 4.99968811,5.9704226 4.99968811,5.61618933 C4.99968811,5.26195605 5.29044834,4.97379377 5.64787524,4.97379377 C6.00530214,4.97379377 6.29606238,5.26187877 6.29606238,5.61618933 C6.29606238,5.97049988 6.00522417,6.25866216 5.64787524,6.25866216 Z" id="Shape"></path>
                    <path d="M38.3479922,10.3254673 L38.3479922,4.51145134 C38.3479922,3.3859261 37.4237817,2.46904612 36.2870175,2.46773243 L10.3093957,2.45482734 C10.1064327,2.16226032 9.87438596,1.8861531 9.61341131,1.63106496 C8.52896686,0.57106979 7.09341131,-0.00262738469 5.56795322,0.0197053852 C2.51594542,0.0615889882 0.018245614,2.55714079 7.79727095e-05,5.58249698 C-0.00522417154,6.47905337 0.208576998,7.37197778 0.618401559,8.16506158 C0.626510721,8.18082589 1.96959064,10.4127119 1.96959064,10.4127119 L1.96959064,29.1404009 C1.96959064,30.2668534 2.89434698,31.183347 4.0305653,31.183347 L36.2849903,31.2006568 C37.4225341,31.2006568 38.3479922,30.2837769 38.3479922,29.1568607 L38.3479922,18.3394542 C38.3479922,18.3394542 39.2955945,16.7644917 39.3037037,16.7486501 C39.7082261,15.9659213 39.9221053,15.0845883 39.9221053,14.1999324 C39.9220273,12.7418112 39.3633528,11.3726346 38.3479922,10.3254673 Z M32.6670565,4.11278435 L28.6555166,8.08848104 L24.639922,4.108766 L32.6670565,4.11278435 Z M27.5978947,9.13657571 L20.6064717,16.0655301 L18.0502144,13.532113 C18.0500585,13.5319585 18.0499805,13.5318812 18.0498246,13.5317266 C18.0496686,13.5315721 18.0495906,13.5314948 18.0494347,13.5313403 L16.1319298,11.6309684 L23.1233528,4.70209128 L27.5978947,9.13657571 Z M13.6753996,18.9153924 L17.5211696,15.1039845 L22.4620663,20.0007341 L18.6162963,23.812142 L13.6753996,18.9153924 Z M14.6127875,21.9404395 L10.2987914,26.2158126 L6.84210526,22.7899348 L11.1560234,18.5145617 L14.6127875,21.9404395 Z M10.6769591,8.16506158 C11.0814815,7.38233277 11.2953606,6.50099976 11.2953606,5.61634388 C11.2953606,5.09666264 11.2230019,4.58872736 11.0859259,4.10204298 L21.608577,4.10729775 L15.0745419,10.582951 L12.7348148,8.26412944 C12.442729,7.97480802 11.9693567,7.97480802 11.677271,8.26412944 C11.3852632,8.55352813 11.3852632,9.0228254 11.677271,9.31230138 L16.4637037,14.0559672 L12.6179337,17.867375 L9.50323587,14.7805071 C9.21122807,14.4911857 8.73777778,14.4911857 8.44569201,14.7805071 C8.15368421,15.0699831 8.15368421,15.5392031 8.44569201,15.8286791 L10.0984016,17.4666216 L3.63134503,23.8758174 L3.63134503,13.1728568 L4.2214425,14.1530258 C4.52405458,14.6556291 5.05723197,14.9556919 5.6477193,14.9556919 C6.23820663,14.9556919 6.77138402,14.6556291 7.0739961,14.1531031 C7.07391813,14.1530258 10.6688499,8.18082589 10.6769591,8.16506158 Z M2.08576998,7.39160589 C1.80062378,6.83127747 1.65793372,6.22612895 1.66175439,5.59231104 C1.67454191,3.4571746 3.43711501,1.69597682 5.59079922,1.6663801 C6.66814815,1.65324318 7.68109162,2.05554214 8.44647173,2.80365129 C8.71001949,3.06128954 8.93177388,3.34914272 9.11064327,3.65871046 C9.11836257,3.67347018 9.12693957,3.68761169 9.13559454,3.7017532 C9.46035088,4.28070514 9.63368421,4.93476938 9.63368421,5.61642115 C9.63368421,6.24166143 9.49099415,6.83877324 9.20959064,7.39176044 L5.648577,13.309249 L2.08576998,7.39160589 Z M4.03103314,29.5365177 C3.81068226,29.5365177 3.631423,29.3589375 3.631423,29.1404781 L3.631423,25.9720068 L5.7845614,23.8381067 L11.5384016,29.5406134 L4.03103314,29.5365177 Z M13.6545809,29.541618 L11.3562573,27.26383 L15.6702534,22.9884569 L22.2870955,29.5462545 L13.6545809,29.541618 Z M19.6738402,24.8601594 L23.5196101,21.0487515 L26.3122807,23.8164695 L22.4665107,27.6278773 L19.6738402,24.8601594 Z M24.4032749,29.5474137 L23.5239766,28.675972 L27.3697466,24.8645641 L32.0990253,29.5515866 L24.4032749,29.5474137 Z M36.2854581,29.5537503 L34.2152827,29.5526684 L28.4273684,23.8164695 L30.1693567,22.0900459 C30.4614425,21.8005699 30.4614425,21.3313499 30.1693567,21.0418739 C29.8773489,20.7525525 29.4038986,20.7525525 29.1118129,21.0418739 L27.3697466,22.7683748 L24.0487329,19.4770345 C24.048577,19.47688 24.048499,19.4768027 24.0483431,19.4766482 C24.0481871,19.4764936 24.0481092,19.4764163 24.0479532,19.4762618 L21.6640936,17.1136247 L24.4987135,14.3043323 L25.9675634,15.760058 C26.1298246,15.9207921 26.3424561,16.0012364 26.5550877,16.0012364 C26.7677193,16.0012364 26.9804288,15.9207921 27.1426121,15.760058 C27.4670565,15.4385124 27.4670565,14.9171311 27.1426121,14.5954311 L25.6737622,13.1397054 L34.7809747,4.11386622 L36.285614,4.11463898 C36.5064327,4.1148708 36.6861598,4.29291475 36.6861598,4.51145134 L36.6861598,9.13572567 C35.9183626,8.77538759 35.0716569,8.59031152 34.1944639,8.60344844 C31.1424561,8.64540932 28.6448343,11.1408066 28.6267446,14.16624 C28.6214425,15.0627964 28.8352437,15.9557208 29.2450682,16.7488046 C29.2531774,16.7644917 32.8481092,22.7367689 32.8481092,22.7367689 C33.1507212,23.2393721 33.6838986,23.5394349 34.2744639,23.5394349 C34.8649513,23.5394349 35.3981287,23.2394494 35.7006628,22.7368462 L36.6862378,21.0997537 L36.6862378,29.1569379 L36.6864717,29.1569379 C36.6862378,29.3757064 36.5061988,29.5537503 36.2854581,29.5537503 Z M37.8362573,15.9752717 L36.7876023,17.7178459 C36.7872904,17.7185414 36.7867446,17.7191596 36.7864327,17.7198551 L34.2751657,21.8928375 L30.7125146,15.9751944 C30.4273684,15.414866 30.2846784,14.8097175 30.288499,14.1758995 C30.3012086,12.0407631 32.0638596,10.2796426 34.2176218,10.2500459 C35.2928655,10.235518 36.3078363,10.6391306 37.0731384,11.3872398 C37.8386745,12.1355035 38.2603509,13.1344506 38.2603509,14.2000097 C38.2603509,14.8252499 38.1176608,15.4223617 37.8362573,15.9752717 Z" id="Shape"></path>
                    <path d="M34.2745419,11.9107848 C33.0008577,11.9107848 31.9646784,12.9377831 31.9646784,14.2000869 C31.9646784,15.4623135 33.0009357,16.4893118 34.2745419,16.4893118 C35.5482261,16.4893118 36.5844055,15.4623135 36.5844055,14.2000869 C36.5844055,12.9376286 35.5482261,11.9107848 34.2745419,11.9107848 Z M34.2745419,14.8423279 C33.917115,14.8423279 33.6263548,14.5542429 33.6263548,14.1999324 C33.6263548,13.8456218 33.917037,13.5574596 34.2745419,13.5574596 C34.6320468,13.5574596 34.922729,13.8456991 34.922729,14.1999324 C34.922729,14.5541657 34.6319688,14.8423279 34.2745419,14.8423279 Z" id="Shape"></path>
                </g>
            </g>
        </g>
    </g>
</svg>