<?xml version="1.0" encoding="UTF-8"?>
<svg width="314px" height="193px" viewBox="0 0 314 193" version="1.1" xmlns="http://www.w3.org/2000/svg" xmlns:xlink="http://www.w3.org/1999/xlink">
    <!-- Generator: Sketch 48.2 (47327) - http://www.bohemiancoding.com/sketch -->
    <title>FriendlyRaccoon</title>
    <desc>Created with Sketch.</desc>
    <defs>
        <path d="M153,188 C212.763189,188 253.692308,169.692116 281.589744,147.897016 C289.659249,141.592648 297.796002,130.695098 306,115.204365 C289.726496,112.588953 277.811966,105.178619 270.25641,92.9733631 C253.244068,65.4915984 204.871795,25.8444544 153,63.3320268 C91.5384615,28.4598664 53.1794872,59.8448108 30.5128205,95.5887751 C21.3265607,110.074952 11.1556205,116.613482 0,115.204365 C8.59321538,130.135173 16.7299675,141.032723 24.4102564,147.897016 C50.192839,170.940313 94.5967582,188 153,188 Z" id="path-1"></path>
        <filter x="-2.1%" y="-3.9%" width="104.2%" height="109.3%" filterUnits="objectBoundingBox" id="filter-2">
            <feOffset dx="0" dy="1" in="SourceAlpha" result="shadowOffsetOuter1"></feOffset>
            <feGaussianBlur stdDeviation="2" in="shadowOffsetOuter1" result="shadowBlurOuter1"></feGaussianBlur>
            <feColorMatrix values="0 0 0 0 0   0 0 0 0 0   0 0 0 0 0  0 0 0 0.1 0" type="matrix" in="shadowBlurOuter1"></feColorMatrix>
        </filter>
    </defs>
    <g id="Logo" stroke="none" stroke-width="1" fill="none" fill-rule="evenodd" transform="translate(-17.000000, -74.000000)">
        <g id="FriendlyRaccoon">
            <g transform="translate(21.000000, 74.000000)">
                <path d="M56,0.148664522 C56,28.4940334 59.7255755,46.5319953 67.1767264,54.2625505 C78.3534527,65.8583832 127.76272,37.8822149 111.883632,21.4076911 C96.98133,5.94658087 78.3534527,-1.13976133 56,0.148664522 Z" id="LeftEar" fill="#A1744C"></path>
                <path d="M188,0.148664522 C188,28.4940334 191.725575,46.5319953 199.176726,54.2625505 C210.353453,65.8583832 259.76272,37.8822149 243.883632,21.4076911 C228.98133,5.94658087 210.353453,-1.13976133 188,0.148664522 Z" id="LeftEar-Copy" fill="#A1744C" transform="translate(217.500000, 28.500000) scale(-1, 1) translate(-217.500000, -28.500000) "></path>
                <path d="M156.042411,188 C209.921875,188 250.241071,160.166667 277,104.5 C251.6875,48.8333333 211.368304,21 156.042411,21 C100.716518,21 60.0357143,48.8333333 34,104.5 C61.4821429,160.166667 102.162946,188 156.042411,188 Z" id="Head" fill="#8B572A"></path>
                <g id="Cheeks">
                    <use fill="black" fill-opacity="1" filter="url(#filter-2)" xlink:href="#path-1"></use>
                    <use fill="#DAC7B7" fill-rule="evenodd" xlink:href="#path-1"></use>
                </g>
                <path d="M154,127.756537 C188.514563,127.756537 215.601942,167.888394 260.165049,146.950034 C270.883171,141.914032 280.494822,134.934578 289,126.011674 C271.51128,117.116941 260.152057,107.520193 254.92233,97.2214291 C232.437786,52.9432041 178.029126,52.7274143 154,90.2419758 C105.504854,40.513371 58.3203883,70.1760475 48.7087379,101.583587 C41.5663831,112.503478 31.6634705,120.646174 19,126.011674 C27.5425881,132.068695 36.6940315,137.687865 46.4543301,142.869181 C98.5145631,170.505689 116.864078,126.011674 154,127.756537 Z" id="Shades" fill="#424242"></path>
                <g id="LeftEye" transform="translate(95.000000, 84.000000)">
                    <circle id="Oval" fill="#FFFFFF" cx="20" cy="20" r="20"></circle>
                    <circle id="Oval-4" fill="#000000" cx="20" cy="20" r="12"></circle>
                </g>
                <g id="RightEye" transform="translate(169.000000, 84.000000)">
                    <circle id="Oval-2" fill="#FFFFFF" cx="20" cy="20" r="20"></circle>
                    <circle id="Oval-3" fill="#000000" cx="20" cy="20" r="12"></circle>
                </g>
                <g id="Group-2" transform="translate(135.000000, 133.000000)" fill="#000000">
                    <path d="M0.875,2.625 C16.1875,0.875 24.5,0.875 32.375,4.375 C29.75,11.375 24.5,14.875 17.5,17.5 C7.875,14.875 0.875,9.625 0.875,2.625 Z" id="Path-5" transform="translate(16.625000, 9.487753) rotate(-3.000000) translate(-16.625000, -9.487753) "></path>
                    <path d="M9,23.3783622 C11.6300105,24.9143278 13.6300105,25.7882071 15,26 C17.531614,26.3913738 20.4761505,25.5967183 22.5,25 C26.1666667,23.9189082 29.6666667,21.2522415 33,17 L36,20 C31.2511125,24.9910341 27.2511125,27.9910341 24,29 C22.0002809,29.6206025 18.827486,30.6472911 15,30 C13.4032123,29.7299568 10.7365456,28.7299568 7,27 L9,23.3783622 Z" id="Rectangle"></path>
                </g>
                <circle id="Oval-6" fill="#FFFFFF" cx="192.5" cy="100.5" r="3.5"></circle>
                <circle id="Oval-6-Copy" fill="#FFFFFF" cx="118.5" cy="100.5" r="3.5"></circle>
            </g>
        </g>
    </g>
</svg>