<?xml version="1.0" encoding="UTF-8"?>
<svg width="36px" height="48px" viewBox="0 0 36 48" version="1.1" xmlns="http://www.w3.org/2000/svg" xmlns:xlink="http://www.w3.org/1999/xlink">
    <!-- Generator: Sketch 48.2 (47327) - http://www.bohemiancoding.com/sketch -->
    <title>Icons / MapPinReptile</title>
    <desc>Created with Sketch.</desc>
    <defs>
        <linearGradient x1="0%" y1="-13.8730138%" x2="74.1682485%" y2="94.8213385%" id="linearGradient-1">
            <stop stop-color="#00F260" offset="0%"></stop>
            <stop stop-color="#0575E6" offset="100%"></stop>
        </linearGradient>
    </defs>
    <g id="UI-Kit-1" stroke="none" stroke-width="1" fill="none" fill-rule="evenodd" transform="translate(-54.000000, -141.000000)">
        <g id="Icons" transform="translate(50.000000, 94.000000)">
            <g id="Icons-/-Pin" transform="translate(4.000000, 47.000000)">
                <g id="Pin">
                    <g id="Marker">
                        <path d="M2.58660225,27.1579362 C1.96112553,26.1289556 1.43679335,25.0322306 1.02732648,23.8814208 C0.740509253,23.1282041 0.543281561,22.4466739 0.4356434,21.8368303 C0.150469807,20.5708266 0,19.25414 0,17.9024662 C0,8.01520714 8.0511402,0 17.9827249,0 C27.9143097,0 35.9654499,8.01520714 35.9654499,17.9024662 C35.9654499,18.765905 35.9040499,19.615067 35.7853594,20.445861 C35.7158741,21.4471385 35.4300261,22.6019544 34.9278146,23.9103149 C34.5905546,24.8530131 34.176175,25.7592811 33.692234,26.6215971 C31.0953578,31.633203 26.10125,38.3460272 18.7099105,46.7600697 C18.3454226,47.1750091 17.713571,47.2158937 17.2986399,46.8513963 C17.2629481,46.8200427 17.2295359,46.7861856 17.1986571,46.7500821 C10.0628769,38.406914 5.19219192,31.8761987 2.58660225,27.1579362 Z" id="Combined-Shape" fill="url(#linearGradient-1)"></path>
                        <ellipse id="Oval-2" fill="#FBFBFB" cx="17.9684827" cy="17.8897074" rx="16.4167585" ry="16.3434889"></ellipse>
                    </g>
                    <g id="Reptile-Icon" fill="#03B2A5">
                        <path d="M16.3836276,27.1531185 C16.609621,26.4649674 16.4405006,25.7418164 16.0510955,25.441582 C17.4306614,25.0769039 19.1082539,25.411949 21.0552753,24.3911263 C23.0022966,23.3703036 23.1367355,22.6919392 23.9287045,21.3113542 C24.3633104,20.5537357 24.6869091,22.2075911 25.7647193,22.2075911 C26.3937235,22.2075911 27.4784727,22.0040625 28.5691684,21.5970736 C29.2374044,21.3477239 29.4871996,21.4379557 30.3001906,21.3113542 C30.5498444,21.1294676 30.3871294,20.5683333 30.2569471,20.4804915 C30.1267649,20.3926497 29.9512079,20.3926146 29.7954459,20.418068 C29.6526047,20.4414101 29.556127,20.5963405 29.4144136,20.6488379 C28.9996801,20.8024749 28.6341935,21.0252583 28.4823009,20.8700033 C28.4108295,20.7969496 28.803288,20.5496198 29.1309764,20.2520117 C29.2486144,20.1451723 29.4687723,20.1412614 29.5500429,20.0364518 C29.648421,19.9095797 29.5962121,19.6883547 29.5962121,19.6490137 C29.5962121,19.5340098 29.254593,19.1651021 28.9482978,19.2523698 C28.7977689,19.2952575 28.6980621,19.721888 28.5691684,19.8095671 C28.2729104,20.1361426 28.1351982,20.4156077 27.9669713,20.3066764 C27.8282277,20.2168363 28.062511,19.9225507 28.1687741,19.4649447 C28.2123158,19.2774386 28.4900346,19.1261246 28.4823009,18.955804 C28.4713877,18.7154603 28.1221723,18.5053963 28.0290297,18.5159115 C27.8224382,18.5392341 27.6518149,18.6027961 27.4784727,18.7614128 C27.3846596,18.9869759 27.5060297,18.9561367 27.4784727,19.2523698 C27.43807,19.6866898 27.2328475,20.3909635 27.1378057,20.6488379 C26.7754694,20.7004036 26.5354329,20.7292042 26.3260753,20.5683333 C25.8224369,19.7265511 25.1165631,19.0017156 24.6565645,18.127391 C24.3599021,16.84375 23.6533981,15.6183961 22.8695494,14.5651725 C22.5085614,13.7207502 22.3609989,13.2355599 22.2812673,12.5105859 C21.8073972,10.5239258 23.1349566,9.68820964 22.2812673,8.2769987 C20.6527097,7.34294017 19.9482146,6.12632161 17.8965534,5.8264974 C17.8831262,5.8264974 17.0368077,6.01517796 16.6999612,6.73859375 C16.2470978,7.71116913 16.1566828,9.01833333 16.1566828,10.6832943 C16.1566828,12.3482552 17.5765006,11.9531367 18.3435926,12.5588021 C19.0187874,13.0919091 19.9074772,13.7442236 19.8833256,14.3929639 C19.8749485,14.6179815 19.9616123,16.535075 19.6608764,16.5035938 C19.0393411,16.4802376 17.4281066,16.6811458 16.5694459,16.5743229 C16.5248723,16.0652 16.8842573,15.2511589 17.0616791,14.7517936 C17.1972846,14.5753581 17.3076529,14.6567057 17.4146436,14.5127181 C17.4947319,14.3297428 17.5044843,13.9954883 17.4493715,13.924873 C17.3281329,13.6720345 16.9649641,13.5628646 16.6999612,13.6712826 C16.448469,13.8082747 16.3625891,13.9933606 16.3245663,14.2014323 C16.2916963,14.3813064 16.4660232,14.3929639 16.3836276,14.6418034 C16.2253633,15.1197705 16.1271059,15.2770338 16.0510955,15.4189583 C15.9993016,15.5156664 15.9167579,14.5798519 15.8826887,14.4851009 C15.82779,14.3324202 16.0666993,14.3324202 15.9650843,14.015791 C15.8634694,13.6991618 15.4465863,13.6452166 15.244836,13.6712826 C14.9968641,13.7033203 14.8394228,13.8936027 14.8394228,14.0616374 C14.8394228,14.2397591 14.909402,14.4501009 15.0623715,14.5651725 C15.215341,14.6802441 15.2839525,15.1419889 15.3564055,15.6542399 C15.0718622,15.4358659 14.7012778,15.0645364 14.539133,14.8290853 C14.4710924,14.7302832 14.5846242,14.4642171 14.4710924,14.3929639 C14.2032366,14.2248561 13.9371976,14.2266113 13.7080763,14.3324202 C13.5909195,14.3865236 13.5442047,14.4678981 13.506226,14.5651725 C13.4699305,14.6581357 13.4387135,14.7646215 13.4840572,14.9178841 C13.5768474,15.2315169 13.7487508,15.1675326 13.9834738,15.2666081 C14.2404131,15.741569 14.6169022,15.9111003 15.11218,16.376582 C15.0884227,16.6639566 15.1451953,17.1231689 15.2104173,17.3884831 C15.4733789,18.4581753 16.9409162,18.0968647 17.8414644,18.6767041 C16.9382521,19.8886589 14.4312741,20.4304753 13.2672691,20.9789909 C13.2044258,20.6483138 13.4541816,20.0026367 13.2672691,19.3061914 C12.7969194,18.3867578 11.981107,18.3707425 11.6157288,18.3896175 C11.4072422,18.4003877 10.9735232,18.4443734 10.6978046,18.3162451 C10.3415457,17.865472 10.1707484,17.3750732 10.0834528,17.1611084 C9.99615716,16.9471436 10.0959917,16.5775973 9.96156399,16.4573145 C9.78594994,16.300179 9.65364673,16.2577848 9.48667899,16.2577848 C9.2089029,16.3009652 9.0516758,16.3688568 8.97084989,16.5035938 C8.87894857,16.6567935 8.94559088,16.9412732 8.93668091,16.967321 C9.03245633,17.2818424 9.37042358,17.2038786 9.4171874,17.3178451 C9.6406391,17.6646385 9.77204716,18.182141 9.75356097,18.2129427 C9.71470985,18.2776765 9.32117435,17.9964024 8.97084989,17.709681 C8.75180765,17.5304069 8.81378299,17.3178451 8.65620508,17.3178451 C8.24660547,17.3178451 8.09357187,17.425018 8.02368052,17.5466667 C7.94710449,17.6799503 7.92550269,17.9931787 7.99573165,18.127391 C8.06596062,18.2616032 8.50673214,18.1758805 8.74357206,18.3576025 C8.91411963,18.5116504 9.31358023,18.6527539 9.24776967,18.7614128 C9.09081271,19.0205622 8.32925594,18.8286024 8.30248735,18.8286024 C8.08547432,18.8286024 8.25636577,18.6767041 7.84445096,18.6767041 C7.43253616,18.6767041 7.30912189,19.1000648 7.35609501,19.2523698 C7.38533782,19.3471863 7.53740944,19.6070771 7.78541343,19.6490137 C7.93578148,19.6744404 8.17379881,19.6343998 8.31587109,19.5007764 C9.40560348,19.5950439 10.9705499,19.5834684 11.179992,19.9651302 C10.7403826,20.9552746 10.6211671,21.510012 9.96156399,21.3113542 C5.41959115,20.4928038 3.72816518,19.5155382 4.15987016,13.4962066 C4.06616275,13.4324958 3.909322,13.2911774 3.87608408,13.3994097 C1.8335093,20.050625 4.28837946,23.6288889 12.9323743,25.3472917 C13.5873517,25.4774994 13.641533,25.8722194 13.8417076,26.0986068 C14.0029507,26.2809646 14.2034492,26.4452799 14.4710924,26.753444 C14.5064628,26.9068896 14.123024,27.2248083 13.5522049,27.5193424 C13.2267134,27.6872912 12.7929698,27.7969456 12.4601414,27.9915576 C12.0356635,28.2397591 11.7225054,28.0124335 11.5762554,28.1012972 C11.3783229,28.221564 11.2134822,28.4950556 11.2323535,28.5818294 C11.2446484,28.6383635 11.3060711,28.8339836 11.4158884,28.9681624 C11.5291138,29.1065054 11.7741091,29.1816527 11.9420764,29.133444 C12.1506241,29.0735883 12.1150477,28.8878002 12.3449921,28.7125098 C12.6867703,28.4519666 13.2036553,28.2336988 13.3081065,28.350262 C13.4247917,28.4804778 13.0046211,28.6805745 12.8083725,29.1496338 C12.4668492,29.0831087 12.2223947,29.4295337 12.1869085,29.5981966 C12.1307213,29.8652499 12.5802786,30.1566502 12.6684616,30.2104004 C12.7090929,30.2351664 13.0684038,30.191361 13.2491797,29.9667562 C13.3346422,29.8605733 13.2491797,29.6295622 13.3081065,29.5014729 C13.3712122,29.3643003 13.5269756,29.2649253 13.6104931,29.1496338 C13.8171777,28.8643165 13.9660743,28.6412052 13.9834738,28.673112 C14.0299284,28.7582992 13.8889828,29.6932731 13.904658,29.8471729 C13.654807,29.9583024 13.611578,30.3283513 13.6511795,30.5099398 C13.6907811,30.6915283 13.8869152,30.7667001 14.0536908,30.8059245 C14.2257591,30.8463936 14.6022618,30.7062565 14.6888795,30.550944 C14.7754972,30.3956315 14.7545771,30.2057292 14.6257507,29.9448242 C14.5515375,29.3631315 14.6871193,28.502168 14.8394228,28.2963151 C15.4506586,28.1881706 16.0259534,27.7762826 16.3836276,27.1531185 Z" id="Oval"></path>
                    </g>
                </g>
            </g>
        </g>
    </g>
</svg>