<?xml version="1.0" encoding="UTF-8"?>
<svg width="59px" height="59px" viewBox="0 0 59 59" version="1.1" xmlns="http://www.w3.org/2000/svg" xmlns:xlink="http://www.w3.org/1999/xlink">
    <!-- Generator: Sketch 48.2 (47327) - http://www.bohemiancoding.com/sketch -->
    <title>Buttons / Filters</title>
    <desc>Created with Sketch.</desc>
    <defs>
        <circle id="path-1" cx="22.5" cy="22.5" r="22.5"></circle>
        <filter x="-31.1%" y="-22.2%" width="162.2%" height="162.2%" filterUnits="objectBoundingBox" id="filter-2">
            <feOffset dx="0" dy="3" in="SourceAlpha" result="shadowOffsetOuter1"></feOffset>
            <feGaussianBlur stdDeviation="3.5" in="shadowOffsetOuter1" result="shadowBlurOuter1"></feGaussianBlur>
            <feColorMatrix values="0 0 0 0 0   0 0 0 0 0   0 0 0 0 0  0 0 0 0.15 0" type="matrix" in="shadowBlurOuter1" result="shadowMatrixOuter1"></feColorMatrix>
            <feOffset dx="0" dy="1" in="SourceAlpha" result="shadowOffsetOuter2"></feOffset>
            <feGaussianBlur stdDeviation="1" in="shadowOffsetOuter2" result="shadowBlurOuter2"></feGaussianBlur>
            <feColorMatrix values="0 0 0 0 0   0 0 0 0 0   0 0 0 0 0  0 0 0 0.2 0" type="matrix" in="shadowBlurOuter2" result="shadowMatrixOuter2"></feColorMatrix>
            <feMerge>
                <feMergeNode in="shadowMatrixOuter1"></feMergeNode>
                <feMergeNode in="shadowMatrixOuter2"></feMergeNode>
            </feMerge>
        </filter>
        <linearGradient x1="0%" y1="-13.8730138%" x2="74.1682485%" y2="94.8213385%" id="linearGradient-3">
            <stop stop-color="#00F260" offset="0%"></stop>
            <stop stop-color="#0575E6" offset="100%"></stop>
        </linearGradient>
    </defs>
    <g id="iPhone-SE" stroke="none" stroke-width="1" fill="none" fill-rule="evenodd" transform="translate(-238.000000, -131.000000)">
        <g id="Primary-Buttons" transform="translate(30.000000, 135.000000)">
            <g id="Buttons-/-Primary" transform="translate(215.000000, 0.000000)">
                <g id="button">
                    <g id="Oval-5">
                        <use fill="black" fill-opacity="1" filter="url(#filter-2)" xlink:href="#path-1"></use>
                        <use fill="#FFFFFF" fill-rule="evenodd" xlink:href="#path-1"></use>
                    </g>
                    <g id="Icons-/-FilterButton2" transform="translate(12.750000, 12.750000)">
                        <rect id="Rectangle-2-Copy" x="0" y="0" width="20" height="20"></rect>
                        <g id="FilterButton2" stroke-width="1" fill-rule="evenodd" transform="translate(0.000000, 2.000000)" fill="url(#linearGradient-3)">
                            <g id="settings-2" fill-rule="nonzero">
                                <path d="M19.0062119,1.76375006 L6.98060213,1.76375006 L6.98060213,1.28983363 C6.98060213,0.594741002 6.41322409,0.0292470668 5.71581555,0.0292470668 L3.75316311,0.0292470668 C3.05575457,0.0292470668 2.48837652,0.594741002 2.48837652,1.28983363 L2.48837652,1.76375006 L0.505907012,1.76375006 C0.22648628,1.76375006 0,1.9895602 0,2.26801507 C0,2.54646994 0.22648628,2.7722421 0.505907012,2.7722421 L2.4883003,2.7722421 L2.4883003,3.2460066 C2.4883003,3.94109922 3.05567835,4.50659316 3.75308689,4.50659316 L5.71577744,4.50659316 C6.41318598,4.50659316 6.98056402,3.94109922 6.98056402,3.2460066 L6.98056402,2.7722421 L19.0062119,2.7722421 C19.2856326,2.7722421 19.5121189,2.54643195 19.5121189,2.26801507 C19.512157,1.9895602 19.2856326,1.76375006 19.0062119,1.76375006 Z M5.96878811,3.2460066 C5.96878811,3.38502512 5.85529726,3.4981391 5.71581555,3.4981391 L3.753125,3.4981391 C3.61364329,3.4981391 3.50015244,3.38502512 3.50015244,3.2460066 L3.50015244,1.28983363 C3.50015244,1.1508151 3.61364329,1.03770112 3.753125,1.03770112 L5.71581555,1.03770112 C5.85529726,1.03770112 5.96878811,1.1508151 5.96878811,1.28983363 L5.96878811,3.2460066 Z" id="Shape"></path>
                                <path d="M19.0062881,7.37994654 L17.0238567,7.37994654 L17.0238567,6.90587818 C17.0238567,6.21078555 16.4564787,5.64529162 15.7590701,5.64529162 L13.7963796,5.64529162 C13.098971,5.64529162 12.531593,6.21078555 12.531593,6.90587818 L12.531593,7.37994654 L0.505907012,7.37994654 C0.22648628,7.37994654 0,7.60571871 0,7.88417357 C0,8.16262844 0.22648628,8.3884006 0.505907012,8.3884006 L12.5315549,8.3884006 L12.5315549,8.86201317 C12.5315549,9.55710579 13.0989329,10.1225997 13.7963415,10.1225997 L15.759032,10.1225997 C16.4564405,10.1225997 17.0238186,9.55710579 17.0238186,8.86201317 L17.0238186,8.3884006 L19.00625,8.3884006 C19.2856707,8.3884006 19.512157,8.16259045 19.512157,7.88417357 C19.5121951,7.60571871 19.2857088,7.37994654 19.0062881,7.37994654 Z M16.0120046,8.86205115 C16.0120046,9.00106967 15.8985137,9.11418365 15.759032,9.11418365 L13.7963415,9.11418365 C13.6568598,9.11418365 13.5433689,9.00106967 13.5433689,8.86205115 L13.5433689,6.90587818 C13.5433689,6.76685965 13.6568598,6.65374567 13.7963415,6.65374567 L15.759032,6.65374567 C15.8985137,6.65374567 16.0120046,6.76685965 16.0120046,6.90587818 L16.0120046,8.86205115 Z" id="Shape"></path>
                                <path d="M19.0062881,13.4086026 L10.5347561,13.4086026 L10.5347561,12.9348381 C10.5347561,12.2397455 9.96737805,11.6742516 9.26996951,11.6742516 L7.30727896,11.6742516 C6.60987043,11.6742516 6.04249238,12.2397455 6.04249238,12.9348381 L6.04249238,13.4086026 L0.505907012,13.4086026 C0.22648628,13.4086026 0,13.6344128 0,13.9128297 C0,14.1912845 0.22648628,14.4170567 0.505907012,14.4170567 L6.04245427,14.4170567 L6.04245427,14.8909731 C6.04245427,15.5860658 6.60983232,16.1515597 7.30724085,16.1515597 L9.2699314,16.1515597 C9.96733994,16.1515597 10.534718,15.5860658 10.534718,14.8909731 L10.534718,14.4170567 L19.00625,14.4170567 C19.2856707,14.4170567 19.512157,14.1912465 19.512157,13.9128297 C19.5121951,13.6343368 19.2857088,13.4086026 19.0062881,13.4086026 Z M9.52290396,14.8910111 C9.52290396,15.0300296 9.40941311,15.1431436 9.2699314,15.1431436 L7.30724085,15.1431436 C7.16775915,15.1431436 7.05426829,15.0300296 7.05426829,14.8910111 L7.05426829,12.9348381 C7.05426829,12.7958196 7.16775915,12.6827056 7.30724085,12.6827056 L9.2699314,12.6827056 C9.40941311,12.6827056 9.52290396,12.7958196 9.52290396,12.9348381 L9.52290396,14.8910111 Z" id="Shape"></path>
                            </g>
                        </g>
                    </g>
                </g>
            </g>
        </g>
    </g>
</svg>