<?xml version="1.0" encoding="UTF-8"?>
<svg width="60px" height="60px" viewBox="0 0 60 60" version="1.1" xmlns="http://www.w3.org/2000/svg" xmlns:xlink="http://www.w3.org/1999/xlink">
    <!-- Generator: Sketch 48.2 (47327) - http://www.bohemiancoding.com/sketch -->
    <title>Buttons / Primary</title>
    <desc>Created with Sketch.</desc>
    <defs>
        <circle id="path-1" cx="30" cy="30" r="30"></circle>
        <filter x="-30.8%" y="-22.5%" width="161.7%" height="161.7%" filterUnits="objectBoundingBox" id="filter-2">
            <feOffset dx="0" dy="4" in="SourceAlpha" result="shadowOffsetOuter1"></feOffset>
            <feGaussianBlur stdDeviation="4.5" in="shadowOffsetOuter1" result="shadowBlurOuter1"></feGaussianBlur>
            <feColorMatrix values="0 0 0 0 0   0 0 0 0 0   0 0 0 0 0  0 0 0 0.15 0" type="matrix" in="shadowBlurOuter1" result="shadowMatrixOuter1"></feColorMatrix>
            <feOffset dx="0" dy="1" in="SourceAlpha" result="shadowOffsetOuter2"></feOffset>
            <feGaussianBlur stdDeviation="1.5" in="shadowOffsetOuter2" result="shadowBlurOuter2"></feGaussianBlur>
            <feColorMatrix values="0 0 0 0 0   0 0 0 0 0   0 0 0 0 0  0 0 0 0.2 0" type="matrix" in="shadowBlurOuter2" result="shadowMatrixOuter2"></feColorMatrix>
            <feMerge>
                <feMergeNode in="shadowMatrixOuter1"></feMergeNode>
                <feMergeNode in="shadowMatrixOuter2"></feMergeNode>
            </feMerge>
        </filter>
        <radialGradient cx="30.0622626%" cy="5.9938597%" fx="30.0622626%" fy="5.9938597%" r="100.164081%" gradientTransform="translate(0.300623,0.059939),rotate(69.804721),scale(1.000000,0.745014),translate(-0.300623,-0.059939)" id="radialGradient-3">
            <stop stop-color="#00F260" offset="0%"></stop>
            <stop stop-color="#0575E6" offset="100%"></stop>
        </radialGradient>
        <radialGradient cx="30.0622626%" cy="5.9938597%" fx="30.0622626%" fy="5.9938597%" r="100.164081%" gradientTransform="translate(0.300623,0.059939),scale(0.400000,1.000000),rotate(47.398762),scale(1.000000,0.745014),translate(-0.300623,-0.059939)" id="radialGradient-4">
            <stop stop-color="#00F260" offset="0%"></stop>
            <stop stop-color="#0575E6" offset="100%"></stop>
        </radialGradient>
    </defs>
    <g id="Symbols" stroke="none" stroke-width="1" fill="none" fill-rule="evenodd">
        <g id="Buttons-/-Primary">
            <g id="button">
                <g id="Oval-5">
                    <use fill="black" fill-opacity="1" filter="url(#filter-2)" xlink:href="#path-1"></use>
                    <use fill="#FFFFFF" fill-rule="evenodd" xlink:href="#path-1"></use>
                </g>
                <g id="Icons/Search" transform="translate(17.000000, 17.000000)">
                    <g id="Search">
                        <rect id="Rectangle-2-Copy" x="0" y="0" width="27" height="27"></rect>
                        <g id="loupe" transform="translate(0.000000, 0.540000)" fill-rule="nonzero">
                            <path d="M23.6487284,2.80729873 C19.9062404,-0.935766242 13.8169262,-0.935766242 10.07449,2.80729873 C8.26151484,4.62047504 7.26316664,7.03132397 7.26316664,9.59558398 C7.26316664,11.9315365 8.09205715,14.1398704 9.61009629,15.8854383 L8.46699328,17.0287333 L7.30202977,15.8635741 C7.17438094,15.7359038 7.0012023,15.6641604 6.82068516,15.6641604 C6.64016801,15.6641604 6.46698938,15.7359038 6.33934055,15.8635741 L0.88139707,21.3224862 C0.313023867,21.8908515 0,22.6465872 0,23.4504964 C0,24.2543539 0.313023867,25.0101412 0.881293711,25.5785065 C1.44966691,26.1469752 2.20527563,26.46 3.00894645,26.46 C3.81261727,26.46 4.56832934,26.1469235 5.13659918,25.5785582 L10.5945943,20.1197495 C10.7222432,19.9920793 10.7939746,19.8188715 10.7939746,19.6383241 C10.7939746,19.4577766 10.7222432,19.2845689 10.5945943,19.1568986 L9.42963082,17.9917394 L10.5730956,16.8480825 C12.371187,18.4098466 14.6162043,19.191168 16.8615833,19.191168 C19.3195209,19.191168 21.7775102,18.2554017 23.6487284,16.3839209 C25.4615484,14.5706929 26.46,12.1599474 26.46,9.59568736 C26.46,7.03127228 25.4616518,4.62047504 23.6487284,2.80729873 Z M4.17390996,24.6156556 C3.86274656,24.9268713 3.44905066,25.0982699 3.00894645,25.0982699 C2.56889391,25.0982699 2.15514633,24.9268196 1.84398293,24.6156039 C1.53287121,24.3044399 1.36144969,23.8906228 1.36144969,23.4505481 C1.36144969,23.0104733 1.53287121,22.5966045 1.84403461,22.2853888 L4.88972531,19.2391865 L7.21965234,21.5694015 L4.17390996,24.6156556 Z M8.18244492,20.6064989 L5.85251789,18.2761805 L6.82068516,17.3078505 L9.15061219,19.6382207 L8.18244492,20.6064989 Z M22.6859875,15.4209666 C19.474405,18.633192 14.2488134,18.633192 11.0372309,15.4209666 C9.48146555,13.8649399 8.62466801,11.7961646 8.62466801,9.59558398 C8.62466801,7.39500334 9.48146555,5.32622804 11.0372309,3.77025305 C12.6430221,2.16419203 14.7523286,1.36110983 16.861635,1.36110983 C18.9708898,1.36110983 21.0802479,2.16408866 22.6860391,3.77025305 C24.2418045,5.32622804 25.098602,7.39505503 25.098602,9.59558398 C25.098602,11.7961129 24.2417528,13.8649399 22.6859875,15.4209666 Z" id="Shape" fill="url(#radialGradient-3)"></path>
                            <path d="M21.7852067,4.67478678 C19.1521051,2.04179024 14.8678424,2.04168524 12.2347408,4.67478678 C9.6017443,7.30788832 9.6017443,11.592151 12.2347933,14.2252526 C13.5513441,15.5416984 15.2806196,16.2 17.01,16.2 C18.7393804,16.2 20.4687084,15.5416984 21.7852592,14.2252526 L21.7852592,14.2252001 C24.4182557,11.5922035 24.4182557,7.30788832 21.7852067,4.67478678 Z M20.807256,13.2473544 C18.7133948,15.3412156 15.3065527,15.3412156 13.2126915,13.2474069 C11.1188303,11.1535458 11.1188303,7.74665109 13.212639,5.65278993 C14.2596746,4.60570186 15.6346011,4.08242031 17.01,4.08242031 C18.3850315,4.08242031 19.7604829,4.60601684 20.807256,5.65278993 C22.9011172,7.74659859 22.9011172,11.1534933 20.807256,13.2473544 Z" id="Shape" fill="url(#radialGradient-3)"></path>
                            <path d="M19.2431186,6.964342 C17.8628056,5.59855267 15.6171433,5.59855267 14.2368814,6.964342 C13.9743729,7.2241172 13.9743729,7.6452924 14.2368814,7.9051686 C14.4993899,8.1649438 14.9249966,8.1649438 15.1876072,7.9051686 C16.0435155,7.05807116 17.4364845,7.05807116 18.2924949,7.9051686 C18.4238002,8.0351067 18.595778,8.1 18.7678068,8.1 C18.9398356,8.1 19.1119154,8.0350562 19.2431186,7.9051686 C19.5056271,7.6453934 19.5056271,7.2241677 19.2431186,6.964342 Z" id="Shape" fill="url(#radialGradient-4)"></path>
                        </g>
                    </g>
                </g>
            </g>
        </g>
    </g>
</svg>